<?xml version="1.0" encoding="UTF-8"?>
<svg id="Layer_1" data-name="Layer 1" xmlns="http://www.w3.org/2000/svg" xmlns:xlink="http://www.w3.org/1999/xlink" version="1.1" viewBox="0 0 471 41.8">
  <defs>
    <style>
      .cls-1, .cls-2, .cls-3, .cls-4 {
        stroke-width: 0px;
      }

      .cls-1, .cls-3 {
        fill: #000;
      }

      .cls-2 {
        fill: #fff;
      }

      .cls-2, .cls-3 {
        fill-rule: evenodd;
      }

      .cls-5 {
        isolation: isolate;
      }

      .cls-4 {
        fill: #231f20;
      }
    </style>
  </defs>
  <path class="cls-1" d="M44.2,9.1c-.3-.9-.8-1.7-1.7-2.2-1.8-1-3.7-.8-5.1.7,0,0-.1.2-.2.3-.6.7-.6,1.4-.6,2.3,0,1.2.4,2,1.3,2.9.1,0,.2.2.4.2.8.6,1.6.6,2.6.6,1,0,1.7-.4,2.4-1.2.9-1.1,1.1-2.1.9-3.5h0ZM31.2,17v4.9h6.3v19.2h6.4v-24.2h-12.7ZM17.5,31.3c-1.3-2.8-3.6-3.9-6.3-5.1-1.3-.6-3-1.1-3.6-2.5,0-.6,0-.8.2-1.3.6-.6,1.2-.8,2-.8h.3c1.4,0,2.4.4,3.7,1,.5.3,1,.4,1.5.6l.7-1.4c0-.2.2-.4.3-.6.1-.3.3-.6.4-.8,0,0,0-.2.1-.3.3-.5.5-1,.6-1.6-2.1-1.4-4.7-1.9-7.2-2h-.5c-.8,0-1.6,0-2.4.1-2.1.5-4,1.4-5.2,3.3,0,.1-.1.2-.2.4,0,.1-.1.2-.2.3-.8,1.4-.8,3.8-.3,5.3,1.1,2.5,2.9,3.9,5.4,5,1.6.7,3.6,1.3,4.5,2.9.1.5,0,1-.1,1.6-.7.6-1.3.8-2.3.8h-.3c-1.8,0-3.4-.7-4.9-1.6-.3-.2-.6-.4-.8-.5-.1,0-.3,0-.4.1-.1.2-.2.4-.4.6,0,0,0,.2-.1.3,0,.2-.2.4-.3.6-.1.3-.3.6-.4.9,0,.2-.2.4-.3.6,0,0,0,.2-.1.3-.3.6-.5,1.2-.7,1.8,3.6,1.9,7.9,3.1,12,2.1,2.2-.7,4-1.8,5.1-3.8,0-.1.1-.2.2-.3l.2-.3c.7-1.6.7-4,0-5.6h0ZM80.4,38.6c-.3-2.9-.5-5.7-.5-8.6s0-2.3,0-3.4v-2.9c0-1.9-1.1-3.9-2.4-5.2-4-3.3-10.2-2-14.7-.6,0,.5,0,.8.2,1.3,0,0,0,.2,0,.3l.3.9c0,.2.1.4.2.6.2.6.4,1.2.6,1.8,1.8-.6,3.4-1.1,5.3-1.1h.3c1,0,1.7.2,2.5.7.6.6.9,1.1,1,2v.3c0,.3.1.7.1,1-.5-.3-1.7-.4-3.4-.5-2.4,0-5,.5-6.8,2.1,0,0-.2.2-.2.2-1.5,1.5-2.4,3.2-2.5,5.3-.1,2.5.2,4.8,1.9,6.7,1.4,1.4,2.9,2.1,5,2.2h.5c.6,0,1.1,0,1.7,0,2-.4,3.6-1.4,4.8-3,0,0,.1-.2.2-.3,0,.1,0,.3,0,.4,0,.2,0,.3,0,.5,0,.7.2,1.3.4,2h5.7c-.1-.9-.3-1.8-.4-2.6h0ZM72.5,35.5c-.9.9-1.8,1-3,1-.7,0-.9-.2-1.4-.6-.9-1.2-.9-2.3-.8-3.7.1-1,.6-1.7,1.4-2.3,1.5-1,3.2-.5,4.9-.1.1,3-.2,4.9-1,5.8h0Z"/>
  <path class="cls-1" d="M280.3,39.3c-4.5,1.1-7.9,1.2-10.3,1.2-7.1,0-15.3-3.6-15.3-13.6s7.1-13.9,16.8-13.9,5.4.2,8,1.2l-.6,5.8c-2.2-1.3-4.8-1.7-6.5-1.7-5.8,0-10.5,2.4-10.5,8.6s3.7,8.4,8.9,8.4,1.9-.2,2.5-.5v-5.3h-4.2v-5h11v14.8ZM282.9,13.5h7.5l5.9,20.9h0l5.9-20.9h7.3l-9.1,26.6h-8.8l-8.9-26.6h0ZM312.8,13.5h12.2c5,0,8.6,2.2,8.6,6.7s-1.7,5.2-4.7,6.2h0c3.5.8,5.4,2.7,5.4,5.9,0,6.4-5.6,7.7-10.4,7.7h-11.2V13.5h0ZM319.8,24h2c2.3,0,4.7-.6,4.7-2.8s-2.3-2.7-4.6-2.7h-2.1v5.5h0ZM319.8,35h2.1c2.6,0,5.3-.4,5.3-3.1s-2.8-3.2-5.2-3.2h-2.2v6.2Z"/>
  <path class="cls-1" d="M217,27.4h13.7v13.7h-13.7v-13.7Z"/>
  <path class="cls-1" d="M217,23.8h17.3v17.3h10.4V13.4h-27.7v10.4Z"/>
  <g id="AI_Image.psd" data-name="AI Image.psd">
    <image id="AI_Image" data-name="AI Image" class="cls-5" width="229" height="219" transform="translate(359 6.5) scale(.2)" xlink:href="all-1.png"/>
  </g>
  <path class="cls-3" d="M109.1,36.3h2c2.4,0,4.9-.4,4.9-3.1s-2.6-3.2-4.9-3.2h-2v6.3h0ZM109.1,25.2h1.9c2.2,0,4.4-.6,4.4-2.8s-2.1-2.7-4.3-2.7h-1.9v5.5ZM102.5,14.6h11.4c4.6,0,8.1,2.2,8.1,6.8s-1.6,5.2-4.4,6.2h0c3.3.8,5,2.7,5,6,0,6.4-5.2,7.7-9.7,7.7h-10.5V14.6Z"/>
  <path class="cls-3" d="M128.3,34.7c1.7,1,4.1,1.8,6.8,1.8s4.1-.5,4.1-2.6c0-5-11.7-1.8-11.7-11.5s5.8-8.2,10.8-8.2,4.7.4,6.4,1l-.4,5.5c-1.7-.8-3.6-1.2-5.5-1.2s-4.5.2-4.5,2.5c0,4.3,11.7,1.4,11.7,11s-5.4,8.8-10.9,8.8-5.2-.4-7.4-1.1l.6-5.9Z"/>
  <path class="cls-3" d="M151.9,14.6h6.6v21.4h10.3v5.3h-16.9V14.6Z"/>
  <path class="cls-3" d="M183.4,20.1h0l-3.2,10.4h6.2l-3-10.4ZM179.4,14.6h8.1l9.6,26.7h-7.3l-1.8-5.7h-9.3l-2,5.7h-6.7l9.4-26.7Z"/>
  <path class="cls-2" d="M102.5,36h3.3v1h-2v1.1h1.9v1h-1.9v2.1h-1.3v-5.3Z"/>
  <path class="cls-2" d="M130.4,40c.3.2.8.4,1.4.4s.8,0,.8-.5c0-1-2.3-.4-2.3-2.3s1.1-1.6,2.1-1.6.9,0,1.3.2v1.1c-.4-.2-.8-.2-1.2-.2s-.9,0-.9.5c0,.9,2.3.3,2.3,2.2s-1.1,1.7-2.2,1.7-1,0-1.5-.2v-1.2"/>
  <path class="cls-2" d="M160.8,37.1h0l-.6,2.1h1.2l-.6-2.1ZM160,36h1.6l1.9,5.3h-1.4l-.4-1.1h-1.8l-.4,1.1h-1.3l1.9-5.3h0Z"/>
  <path class="cls-2" d="M191.2,38.5h.3c.5,0,.8-.2.8-.7s-.4-.7-.8-.7h-.3v1.4ZM189.9,36h1.6c1.5,0,2.2.5,2.2,1.7s-.7,1.7-1.9,1.7h-.5v1.8h-1.3v-5.3Z"/>
  <path class="cls-4" d="M423,39.5c-.5,0-.8.4-.8.8s.4.8.8.8.8-.4.8-.8-.4-.8-.8-.8Z"/>
  <path class="cls-4" d="M423,37.3c-.5,0-.8.4-.8.8s.4.8.8.8.8-.4.8-.8-.4-.8-.8-.8Z"/>
  <path class="cls-4" d="M420.8,8.7c-.5,0-.8.4-.8.8s.4.8.8.8.8-.4.8-.8-.4-.8-.8-.8Z"/>
  <path class="cls-4" d="M423,35.1c-.5,0-.8.4-.8.8s.4.8.8.8.8-.4.8-.8-.4-.8-.8-.8Z"/>
  <path class="cls-4" d="M420.8,10.9c-.5,0-.8.4-.8.8s.4.8.8.8.8-.4.8-.8-.4-.8-.8-.8Z"/>
  <path class="cls-4" d="M423,21.9c-.5,0-.8.4-.8.8s.4.8.8.8.8-.4.8-.8-.4-.8-.8-.8Z"/>
  <path class="cls-4" d="M423,32.9c-.5,0-.8.4-.8.8s.4.8.8.8.8-.4.8-.8-.4-.8-.8-.8Z"/>
  <path class="cls-4" d="M423,24.1c-.5,0-.8.4-.8.8s.4.8.8.8.8-.4.8-.8-.4-.8-.8-.8Z"/>
  <path class="cls-4" d="M423,30.7c-.5,0-.8.4-.8.8s.4.8.8.8.8-.4.8-.8-.4-.8-.8-.8Z"/>
  <path class="cls-4" d="M423,28.5c-.5,0-.8.4-.8.8s.4.8.8.8.8-.4.8-.8-.4-.8-.8-.8Z"/>
  <path class="cls-4" d="M423,26.3c-.5,0-.8.4-.8.8s.4.8.8.8.8-.4.8-.8-.4-.8-.8-.8Z"/>
  <path class="cls-4" d="M420.8,28.5c-.5,0-.8.4-.8.8s.4.8.8.8.8-.4.8-.8-.4-.8-.8-.8Z"/>
  <path class="cls-4" d="M420.8,24.1c-.5,0-.8.4-.8.8s.4.8.8.8.8-.4.8-.8-.4-.8-.8-.8Z"/>
  <path class="cls-4" d="M420.8,13.1c-.5,0-.8.4-.8.8s.4.8.8.8.8-.4.8-.8-.4-.8-.8-.8Z"/>
  <path class="cls-4" d="M420.8,32.9c-.5,0-.8.4-.8.8s.4.8.8.8.8-.4.8-.8-.4-.8-.8-.8Z"/>
  <path class="cls-4" d="M420.8,30.7c-.5,0-.8.4-.8.8s.4.8.8.8.8-.4.8-.8-.4-.8-.8-.8Z"/>
  <path class="cls-4" d="M420.8,26.3c-.5,0-.8.4-.8.8s.4.8.8.8.8-.4.8-.8-.4-.8-.8-.8Z"/>
  <path class="cls-4" d="M420.8,15.3c-.5,0-.8.4-.8.8s.4.8.8.8.8-.4.8-.8-.4-.8-.8-.8Z"/>
  <path class="cls-4" d="M420.8,17.5c-.5,0-.8.4-.8.8s.4.8.8.8.8-.4.8-.8-.4-.8-.8-.8Z"/>
  <path class="cls-4" d="M420.8,21.9c-.5,0-.8.4-.8.8s.4.8.8.8.8-.4.8-.8-.4-.8-.8-.8Z"/>
  <path class="cls-4" d="M420.8,19.7c-.5,0-.8.4-.8.8s.4.8.8.8.8-.4.8-.8-.4-.8-.8-.8Z"/>
  <path class="cls-4" d="M425.2,39.5c-.5,0-.8.4-.8.8s.4.8.8.8.8-.4.8-.8-.4-.8-.8-.8Z"/>
  <path class="cls-4" d="M425.2,19.7c-.5,0-.8.4-.8.8s.4.8.8.8.8-.4.8-.8-.4-.8-.8-.8Z"/>
  <path class="cls-4" d="M425.2,21.9c-.5,0-.8.4-.8.8s.4.8.8.8.8-.4.8-.8-.4-.8-.8-.8Z"/>
  <path class="cls-4" d="M425.2,17.5c-.5,0-.8.4-.8.8s.4.8.8.8.8-.4.8-.8-.4-.8-.8-.8Z"/>
  <path class="cls-4" d="M425.2,24.1c-.5,0-.8.4-.8.8s.4.8.8.8.8-.4.8-.8-.4-.8-.8-.8Z"/>
  <path class="cls-4" d="M425.2,26.3c-.5,0-.8.4-.8.8s.4.8.8.8.8-.4.8-.8-.4-.8-.8-.8Z"/>
  <path class="cls-4" d="M427.4,35.1c-.5,0-.8.4-.8.8s.4.8.8.8.8-.4.8-.8-.4-.8-.8-.8Z"/>
  <path class="cls-4" d="M427.4,39.5c-.5,0-.8.4-.8.8s.4.8.8.8.8-.4.8-.8-.4-.8-.8-.8Z"/>
  <path class="cls-4" d="M425.2,28.5c-.5,0-.8.4-.8.8s.4.8.8.8.8-.4.8-.8-.4-.8-.8-.8Z"/>
  <path class="cls-4" d="M427.4,32.9c-.5,0-.8.4-.8.8s.4.8.8.8.8-.4.8-.8-.4-.8-.8-.8Z"/>
  <path class="cls-4" d="M427.4,37.3c-.5,0-.8.4-.8.8s.4.8.8.8.8-.4.8-.8-.4-.8-.8-.8Z"/>
  <path class="cls-4" d="M423,19.7c-.5,0-.8.4-.8.8s.4.8.8.8.8-.4.8-.8-.4-.8-.8-.8Z"/>
  <path class="cls-4" d="M423,10.9c-.5,0-.8.4-.8.8s.4.8.8.8.8-.4.8-.8-.4-.8-.8-.8Z"/>
  <path class="cls-4" d="M425.2,30.7c-.5,0-.8.4-.8.8s.4.8.8.8.8-.4.8-.8-.4-.8-.8-.8Z"/>
  <path class="cls-4" d="M423,13.1c-.5,0-.8.4-.8.8s.4.8.8.8.8-.4.8-.8-.4-.8-.8-.8Z"/>
  <path class="cls-4" d="M423,15.3c-.5,0-.8.4-.8.8s.4.8.8.8.8-.4.8-.8-.4-.8-.8-.8Z"/>
  <path class="cls-4" d="M423,17.5c-.5,0-.8.4-.8.8s.4.8.8.8.8-.4.8-.8-.4-.8-.8-.8Z"/>
  <path class="cls-4" d="M423,8.7c-.5,0-.8.4-.8.8s.4.8.8.8.8-.4.8-.8-.4-.8-.8-.8Z"/>
  <path class="cls-4" d="M420.8,35.1c-.5,0-.8.4-.8.8s.4.8.8.8.8-.4.8-.8-.4-.8-.8-.8Z"/>
  <path class="cls-4" d="M425.2,35.1c-.5,0-.8.4-.8.8s.4.8.8.8.8-.4.8-.8-.4-.8-.8-.8Z"/>
  <path class="cls-4" d="M425.2,32.9c-.5,0-.8.4-.8.8s.4.8.8.8.8-.4.8-.8-.4-.8-.8-.8Z"/>
  <path class="cls-4" d="M425.2,37.3c-.5,0-.8.4-.8.8s.4.8.8.8.8-.4.8-.8-.4-.8-.8-.8Z"/>
  <path class="cls-4" d="M431.8,28.5c-.5,0-.8.4-.8.8s.4.8.8.8.8-.4.8-.8-.4-.8-.8-.8Z"/>
  <path class="cls-4" d="M431.8,14.7c.5,0,.8-.4.8-.8s-.4-.8-.8-.8-.8.4-.8.8.4.8.8.8Z"/>
  <path class="cls-4" d="M431.8,26.3c-.5,0-.8.4-.8.8s.4.8.8.8.8-.4.8-.8-.4-.8-.8-.8Z"/>
  <path class="cls-4" d="M434,17c.5,0,.8-.4.8-.8s-.4-.8-.8-.8-.8.4-.8.8.4.8.8.8Z"/>
  <path class="cls-4" d="M431.8,17c.5,0,.8-.4.8-.8s-.4-.8-.8-.8-.8.4-.8.8.4.8.8.8Z"/>
  <path class="cls-4" d="M427.4,30.7c-.5,0-.8.4-.8.8s.4.8.8.8.8-.4.8-.8-.4-.8-.8-.8Z"/>
  <path class="cls-4" d="M431.8,32.4c.5,0,.8-.4.8-.8s-.4-.8-.8-.8-.8.4-.8.8.4.8.8.8Z"/>
  <path class="cls-4" d="M429.6,10.3c.5,0,.8-.4.8-.8s-.4-.8-.8-.8-.8.4-.8.8.4.8.8.8Z"/>
  <path class="cls-4" d="M431.8,24.1c-.5,0-.8.4-.8.8s.4.8.8.8.8-.4.8-.8-.4-.8-.8-.8Z"/>
  <path class="cls-4" d="M429.6,12.5c.5,0,.8-.4.8-.8s-.4-.8-.8-.8-.8.4-.8.8.4.8.8.8Z"/>
  <path class="cls-4" d="M434,14.7c.5,0,.8-.4.8-.8s-.4-.8-.8-.8-.8.4-.8.8.4.8.8.8Z"/>
  <path class="cls-4" d="M434,12.5c.5,0,.8-.4.8-.8s-.4-.8-.8-.8-.8.4-.8.8.4.8.8.8Z"/>
  <path class="cls-4" d="M460.5,19.1c.5,0,.8-.4.8-.8s-.4-.8-.8-.8c-.1,0-.2,0-.3,0-.1,0-.2.1-.3.2,0,0-.1.2-.2.3,0,.1,0,.2,0,.3s0,.2,0,.3c0,.1.1.2.2.3,0,0,.2.1.3.2.1,0,.2,0,.3,0Z"/>
  <path class="cls-4" d="M460.5,14.7c.5,0,.8-.4.8-.8s-.4-.8-.8-.8-.8.4-.8.8.4.8.8.8Z"/>
  <path class="cls-4" d="M460.5,17c.5,0,.8-.4.8-.8s-.4-.8-.8-.8-.8.4-.8.8.4.8.8.8Z"/>
  <path class="cls-4" d="M460.5,12.5c.5,0,.8-.4.8-.8,0-.5-.4-.9-.8-.9s-.8.4-.8.8.4.8.8.8Z"/>
  <path class="cls-4" d="M429.6,14.7c.5,0,.8-.4.8-.8s-.4-.8-.8-.8-.8.4-.8.8.4.8.8.8Z"/>
  <path class="cls-4" d="M420.8,37.3c-.5,0-.8.4-.8.8s.4.8.8.8.8-.4.8-.8-.4-.8-.8-.8Z"/>
  <path class="cls-4" d="M438.4,10.3c.5,0,.8-.4.8-.8s-.4-.8-.8-.8-.8.4-.8.8.4.8.8.8Z"/>
  <path class="cls-4" d="M434,10.3c.5,0,.8-.4.8-.8s-.4-.8-.8-.8-.8.4-.8.8.4.8.8.8Z"/>
  <path class="cls-4" d="M438.4,14.7c.5,0,.8-.4.8-.8s-.4-.8-.8-.8-.8.4-.8.8.4.8.8.8Z"/>
  <path class="cls-4" d="M438.4,12.5c.5,0,.8-.4.8-.8,0-.5-.4-.9-.8-.9s-.8.4-.8.8.4.8.8.8"/>
  <path class="cls-4" d="M460.5,10.3c.5,0,.8-.4.8-.8s-.4-.8-.8-.8-.8.4-.8.8.4.8.8.8Z"/>
  <path class="cls-4" d="M418.6,24.1c-.5,0-.8.4-.8.8s.4.8.8.8.8-.4.8-.8-.4-.8-.8-.8"/>
  <path class="cls-4" d="M418.6,26.3c-.5,0-.8.4-.8.8s.4.8.8.8.8-.4.8-.8-.4-.8-.8-.8Z"/>
  <path class="cls-4" d="M418.6,28.5c-.5,0-.8.4-.8.8s.4.8.8.8.8-.4.8-.8-.4-.8-.8-.8Z"/>
  <path class="cls-4" d="M418.6,35.1c-.5,0-.8.4-.8.8s.4.8.8.8.8-.4.8-.8-.4-.8-.8-.8Z"/>
  <path class="cls-4" d="M418.6,30.7c-.5,0-.8.4-.8.8s.4.8.8.8.8-.4.8-.8-.4-.8-.8-.8Z"/>
  <path class="cls-4" d="M418.6,32.9c-.5,0-.8.4-.8.8s.4.8.8.8.8-.4.8-.8-.4-.8-.8-.8Z"/>
  <path class="cls-4" d="M420.8,39.5c-.5,0-.8.4-.8.8s.4.8.8.8.8-.4.8-.8-.4-.8-.8-.8Z"/>
  <path class="cls-4" d="M418.6,17.5c-.5,0-.8.4-.8.8s.4.8.8.8.8-.4.8-.8-.4-.8-.8-.8Z"/>
  <path class="cls-4" d="M418.6,21.9c-.5,0-.8.4-.8.8s.4.8.8.8.8-.4.8-.8-.4-.8-.8-.8Z"/>
  <path class="cls-4" d="M418.6,19.7c-.5,0-.8.4-.8.8s.4.8.8.8.8-.4.8-.8-.4-.8-.8-.8Z"/>
  <path class="cls-4" d="M425.2,10.3c.5,0,.8-.4.8-.8s-.4-.8-.8-.8-.8.4-.8.8.4.8.8.8Z"/>
  <path class="cls-4" d="M425.2,14.7c.5,0,.8-.4.8-.8s-.4-.8-.8-.8-.8.4-.8.8.4.8.8.8Z"/>
  <path class="cls-4" d="M425.2,17c.5,0,.8-.4.8-.8s-.4-.8-.8-.8-.8.4-.8.8.4.8.8.8Z"/>
  <path class="cls-4" d="M418.6,10.3c.5,0,.8-.4.8-.8s-.4-.8-.8-.8-.8.4-.8.8.4.8.8.8Z"/>
  <path class="cls-4" d="M428.8,16.1c0,.5.4.8.8.8s.8-.4.8-.8-.4-.8-.8-.8-.8.4-.8.8Z"/>
  <path class="cls-4" d="M425.2,12.5c.5,0,.8-.4.8-.8s-.4-.8-.8-.8-.8.4-.8.8.4.8.8.8Z"/>
  <path class="cls-4" d="M418.6,12.5c.5,0,.8-.4.8-.8s-.4-.8-.8-.8-.8.4-.8.9.4.8.8.8"/>
  <path class="cls-4" d="M418.6,17c.5,0,.8-.4.8-.8s-.4-.8-.8-.8-.8.4-.8.8.4.8.8.8Z"/>
  <path class="cls-4" d="M418.6,37.3c-.5,0-.8.4-.8.8s.4.8.8.8.8-.4.8-.8-.4-.8-.8-.8Z"/>
  <path class="cls-4" d="M418.6,39.5c-.5,0-.8.4-.8.8s.4.8.8.8.8-.4.8-.8-.4-.8-.8-.8Z"/>
  <path class="cls-4" d="M418.6,14.7c.5,0,.8-.4.8-.8s-.4-.8-.8-.8-.8.4-.8.8.4.8.8.8Z"/>
  <path class="cls-4" d="M427.4,10.9c-.5,0-.8.4-.8.8s.4.8.8.8.8-.4.8-.8c0-.5-.4-.9-.8-.9Z"/>
  <path class="cls-4" d="M438.4,30.7c-.5,0-.8.4-.8.8s.4.8.8.8.8-.4.8-.8-.4-.8-.8-.8Z"/>
  <path class="cls-4" d="M438.4,32.9c-.5,0-.8.4-.8.8s.4.8.8.8.8-.4.8-.8-.4-.8-.8-.8Z"/>
  <path class="cls-4" d="M438.4,35.1c-.5,0-.8.4-.8.8s.4.8.8.8.8-.4.8-.8-.4-.8-.8-.8Z"/>
  <path class="cls-4" d="M438.4,37.3c-.5,0-.8.4-.8.8s.4.8.8.8.8-.4.8-.8-.4-.8-.8-.8Z"/>
  <path class="cls-4" d="M438.4,39.5c-.5,0-.8.4-.8.8s.4.8.8.8.8-.4.8-.8-.4-.8-.8-.8Z"/>
  <path class="cls-4" d="M438.4,28.5c-.5,0-.8.4-.8.8s.4.8.8.8.8-.4.8-.8-.4-.8-.8-.8Z"/>
  <path class="cls-4" d="M436.2,8.7c-.5,0-.8.4-.8.8s.4.8.8.8.8-.4.8-.8-.4-.8-.8-.8Z"/>
  <path class="cls-4" d="M438.4,21.9c-.5,0-.8.4-.8.8s.4.8.8.8.8-.4.8-.8-.4-.8-.8-.8Z"/>
  <path class="cls-4" d="M438.4,24.1c-.5,0-.8.4-.8.8s.4.8.8.8.8-.4.8-.8-.4-.8-.8-.8Z"/>
  <path class="cls-4" d="M438.4,26.3c-.5,0-.8.4-.8.8s.4.8.8.8.8-.4.8-.8-.4-.8-.8-.8Z"/>
  <path class="cls-4" d="M438.4,19.7c-.5,0-.8.4-.8.8s.4.8.8.8.8-.4.8-.8-.4-.8-.8-.8Z"/>
  <path class="cls-4" d="M436.2,26.3c-.5,0-.8.4-.8.8s.4.8.8.8.8-.4.8-.8-.4-.8-.8-.8Z"/>
  <path class="cls-4" d="M436.2,24.1c-.5,0-.8.4-.8.8s.4.8.8.8.8-.4.8-.8-.4-.8-.8-.8Z"/>
  <path class="cls-4" d="M436.2,28.5c-.5,0-.8.4-.8.8s.4.8.8.8.8-.4.8-.8-.4-.8-.8-.8Z"/>
  <path class="cls-4" d="M436.2,30.7c-.5,0-.8.4-.8.8s.4.8.8.8.8-.4.8-.8-.4-.8-.8-.8Z"/>
  <path class="cls-4" d="M427.4,28.5c-.5,0-.8.4-.8.8s.4.8.8.8.8-.4.8-.8-.4-.8-.8-.8Z"/>
  <path class="cls-4" d="M436.2,13.1c-.5,0-.8.4-.8.8s.4.8.8.8.8-.4.8-.8-.4-.8-.8-.8Z"/>
  <path class="cls-4" d="M436.2,19.7c-.5,0-.8.4-.8.8s.4.8.8.8.8-.4.8-.8-.4-.8-.8-.8Z"/>
  <path class="cls-4" d="M436.2,15.3c-.5,0-.8.4-.8.8s.4.8.8.8.8-.4.8-.8-.4-.8-.8-.8Z"/>
  <path class="cls-4" d="M436.2,10.9c-.5,0-.8.4-.8.8s.4.8.8.8.8-.4.8-.8-.4-.8-.8-.8Z"/>
  <path class="cls-4" d="M436.2,17.5c-.5,0-.8.4-.8.8s.4.8.8.8.8-.4.8-.8-.4-.8-.8-.8Z"/>
  <path class="cls-4" d="M453.9,39.5c-.5,0-.8.4-.8.8s.4.8.8.8.8-.4.8-.8-.4-.8-.8-.8Z"/>
  <path class="cls-4" d="M460.5,30.7c-.5,0-.8.4-.8.8s.4.8.8.8.8-.4.8-.8-.4-.8-.8-.8Z"/>
  <path class="cls-4" d="M460.5,39.5c-.5,0-.8.4-.8.8s.4.8.8.8.8-.4.8-.8-.4-.8-.8-.8Z"/>
  <path class="cls-4" d="M460.5,37.3c-.5,0-.8.4-.8.8s.4.8.8.8.8-.4.8-.8-.4-.8-.8-.8Z"/>
  <path class="cls-4" d="M460.5,35.1c-.5,0-.8.4-.8.8s.4.8.8.8.8-.4.8-.8-.4-.8-.8-.8Z"/>
  <path class="cls-4" d="M460.5,28.5c-.5,0-.8.4-.8.8s.4.8.8.8.8-.4.8-.8-.4-.8-.8-.8Z"/>
  <path class="cls-4" d="M460.5,32.9c-.5,0-.8.4-.8.8s.4.8.8.8.8-.4.8-.8-.4-.8-.8-.8Z"/>
  <path class="cls-4" d="M460.5,26.3c-.5,0-.8.4-.8.8s.4.8.8.8.8-.4.8-.8-.4-.8-.8-.8Z"/>
  <path class="cls-4" d="M460.5,21.9c-.5,0-.8.4-.8.8s.4.8.8.8.8-.4.8-.8-.4-.8-.8-.8Z"/>
  <path class="cls-4" d="M460.5,19.7c-.5,0-.8.4-.8.8s.4.8.8.8.8-.4.8-.8-.4-.8-.8-.8Z"/>
  <path class="cls-4" d="M460.5,24.1c-.5,0-.8.4-.8.8s.4.8.8.8.8-.4.8-.8-.4-.8-.8-.8Z"/>
  <path class="cls-4" d="M436.2,32.9c-.5,0-.8.4-.8.8s.4.8.8.8.8-.4.8-.8-.4-.8-.8-.8Z"/>
  <path class="cls-4" d="M442.8,39.5c-.5,0-.8.4-.8.8s.4.8.8.8.8-.4.8-.8-.4-.8-.8-.8Z"/>
  <path class="cls-4" d="M447.2,39.5c-.5,0-.8.4-.8.8s.4.8.8.8.8-.4.8-.8-.4-.8-.8-.8Z"/>
  <path class="cls-4" d="M445,39.5c-.5,0-.8.4-.8.8s.4.8.8.8.8-.4.8-.8-.4-.8-.8-.8Z"/>
  <path class="cls-4" d="M438.4,15.3c-.5,0-.8.4-.8.8s.4.8.8.8.8-.4.8-.8-.4-.8-.8-.8Z"/>
  <path class="cls-4" d="M440.6,39.5c-.5,0-.8.4-.8.8s.4.8.8.8.8-.4.8-.8-.4-.8-.8-.8Z"/>
  <path class="cls-4" d="M458.3,39.5c-.5,0-.8.4-.8.8s.4.8.8.8.8-.4.8-.8-.4-.8-.8-.8Z"/>
  <path class="cls-4" d="M438.4,17.5c-.5,0-.8.4-.8.8s.4.8.8.8.8-.4.8-.8-.4-.8-.8-.8Z"/>
  <path class="cls-4" d="M449.5,39.5c-.5,0-.8.4-.8.8s.4.8.8.8.8-.4.8-.8-.4-.8-.8-.8Z"/>
  <path class="cls-4" d="M456,39.5c-.5,0-.8.4-.8.8s.4.8.8.8.8-.4.8-.8-.4-.8-.8-.8Z"/>
  <path class="cls-4" d="M451.6,39.5c-.5,0-.8.4-.8.8s.4.8.8.8.8-.4.8-.8-.4-.8-.8-.8Z"/>
  <path class="cls-4" d="M436.2,21.9c-.5,0-.8.4-.8.8s.4.8.8.8.8-.4.8-.8-.4-.8-.8-.8Z"/>
  <path class="cls-4" d="M429.6,26.3c-.5,0-.8.4-.8.8s.4.8.8.8.8-.4.8-.8-.4-.8-.8-.8Z"/>
  <path class="cls-4" d="M429.6,24.1c-.5,0-.8.4-.8.8s.4.8.8.8.8-.4.8-.8-.4-.8-.8-.8Z"/>
  <path class="cls-4" d="M429.6,28.5c-.5,0-.8.4-.8.8s.4.8.8.8.8-.4.8-.8-.4-.8-.8-.8Z"/>
  <path class="cls-4" d="M429.6,35.1c-.5,0-.8.4-.8.8s.4.8.8.8.8-.4.8-.8-.4-.8-.8-.8Z"/>
  <path class="cls-4" d="M429.6,32.9c-.5,0-.8.4-.8.8s.4.8.8.8.8-.4.8-.8-.4-.8-.8-.8Z"/>
  <path class="cls-4" d="M436.2,35.1c-.5,0-.8.4-.8.8s.4.8.8.8.8-.4.8-.8-.4-.8-.8-.8Z"/>
  <path class="cls-4" d="M431.8,34.6c.5,0,.8-.4.8-.8s-.4-.8-.8-.8-.8.4-.8.8.4.8.8.8Z"/>
  <path class="cls-4" d="M429.6,17.5c-.5,0-.8.4-.8.8s.4.8.8.8.8-.4.8-.8-.4-.8-.8-.8Z"/>
  <path class="cls-4" d="M429.6,21.4c.5,0,.8-.4.8-.8s-.4-.8-.8-.8-.8.4-.8.8.4.8.8.8Z"/>
  <path class="cls-4" d="M429.6,21.9c-.5,0-.8.4-.8.8s.4.8.8.8.8-.4.8-.8-.4-.8-.8-.8Z"/>
  <path class="cls-4" d="M427.4,14.7c.5,0,.8-.4.8-.8s-.4-.8-.8-.8-.8.4-.8.8.4.8.8.8Z"/>
  <path class="cls-4" d="M427.4,17.5c-.5,0-.8.4-.8.8s.4.8.8.8.8-.4.8-.8-.4-.8-.8-.8Z"/>
  <path class="cls-4" d="M427.4,19.7c-.5,0-.8.4-.8.8s.4.8.8.8.8-.4.8-.8-.4-.8-.8-.8Z"/>
  <path class="cls-4" d="M427.4,21.9c-.5,0-.8.4-.8.8s.4.8.8.8.8-.4.8-.8-.4-.8-.8-.8Z"/>
  <path class="cls-4" d="M427.4,26.3c-.5,0-.8.4-.8.8s.4.8.8.8.8-.4.8-.8-.4-.8-.8-.8Z"/>
  <path class="cls-4" d="M427.4,24.1c-.5,0-.8.4-.8.8s.4.8.8.8.8-.4.8-.8-.4-.8-.8-.8Z"/>
  <path class="cls-4" d="M431.8,39.5c-.5,0-.8.4-.8.8s.4.8.8.8.8-.4.8-.8-.4-.8-.8-.8Z"/>
  <path class="cls-4" d="M427.4,8.7c-.5,0-.8.4-.8.8s.4.8.8.8.8-.4.8-.8-.4-.8-.8-.8Z"/>
  <path class="cls-4" d="M429.6,39.5c-.5,0-.8.4-.8.8s.4.8.8.8.8-.4.8-.8-.4-.8-.8-.8Z"/>
  <path class="cls-4" d="M427.4,15.3c-.5,0-.8.4-.8.8s.4.8.8.8.8-.4.8-.8-.4-.8-.8-.8Z"/>
  <path class="cls-4" d="M429.6,37.3c-.5,0-.8.4-.8.8s.4.8.8.8.8-.4.8-.8-.4-.8-.8-.8Z"/>
  <path class="cls-4" d="M429.6,30.7c-.5,0-.8.4-.8.8s.4.8.8.8.8-.4.8-.8-.4-.8-.8-.8Z"/>
  <path class="cls-4" d="M434,24.1c-.5,0-.8.4-.8.8s.4.8.8.8.8-.4.8-.8-.4-.8-.8-.8Z"/>
  <path class="cls-4" d="M434,26.3c-.5,0-.8.4-.8.8s.4.8.8.8.8-.4.8-.8-.4-.8-.8-.8Z"/>
  <path class="cls-4" d="M434,30.7c-.5,0-.8.4-.8.8s.4.8.8.8.8-.4.8-.8-.4-.8-.8-.8Z"/>
  <path class="cls-4" d="M434,21.9c-.5,0-.8.4-.8.8s.4.8.8.8.8-.4.8-.8-.4-.8-.8-.8Z"/>
  <path class="cls-4" d="M434,28.5c-.5,0-.8.4-.8.8s.4.8.8.8.8-.4.8-.8-.4-.8-.8-.8Z"/>
  <path class="cls-4" d="M436.2,39.5c-.5,0-.8.4-.8.8s.4.8.8.8.8-.4.8-.8-.4-.8-.8-.8Z"/>
  <path class="cls-4" d="M434,32.9c-.5,0-.8.4-.8.8s.4.8.8.8.8-.4.8-.8-.4-.8-.8-.8Z"/>
  <path class="cls-4" d="M431.8,37.3c-.5,0-.8.4-.8.8s.4.8.8.8.8-.4.8-.8-.4-.8-.8-.8Z"/>
  <path class="cls-4" d="M434,17.5c-.5,0-.8.4-.8.8s.4.8.8.8.8-.4.8-.8-.4-.8-.8-.8Z"/>
  <path class="cls-4" d="M434,19.7c-.5,0-.8.4-.8.8s.4.8.8.8.8-.4.8-.8-.4-.8-.8-.8Z"/>
  <path class="cls-4" d="M436.2,37.3c-.5,0-.8.4-.8.8s.4.8.8.8.8-.4.8-.8-.4-.8-.8-.8Z"/>
  <path class="cls-4" d="M431.8,17.5c-.5,0-.8.4-.8.8s.4.8.8.8.8-.4.8-.8-.4-.8-.8-.8Z"/>
  <path class="cls-4" d="M431.8,21.4c.5,0,.8-.4.8-.8s-.4-.8-.8-.8-.8.4-.8.8.4.8.8.8Z"/>
  <path class="cls-4" d="M431.8,21.9c-.5,0-.8.4-.8.8s.4.8.8.8.8-.4.8-.8-.4-.8-.8-.8Z"/>
  <path class="cls-4" d="M431.8,35.1c-.5,0-.8.4-.8.8s.4.8.8.8.8-.4.8-.8-.4-.8-.8-.8Z"/>
  <path class="cls-4" d="M434,35.1c-.5,0-.8.4-.8.8s.4.8.8.8.8-.4.8-.8-.4-.8-.8-.8Z"/>
  <path class="cls-4" d="M434,37.3c-.5,0-.8.4-.8.8s.4.8.8.8.8-.4.8-.8-.4-.8-.8-.8Z"/>
  <path class="cls-4" d="M434,39.5c-.5,0-.8.4-.8.8s.4.8.8.8.8-.4.8-.8-.4-.8-.8-.8Z"/>
  <path class="cls-4" d="M431.8,8.7c-.5,0-.8.4-.8.8s.4.8.8.8.8-.4.8-.8-.4-.8-.8-.8Z"/>
  <path class="cls-4" d="M431.8,10.9c-.5,0-.8.4-.8.8s.4.8.8.8.8-.4.8-.8c0-.5-.4-.9-.8-.9Z"/>
  <path class="cls-4" d="M432.2,4c0-.4.3-.7.7-.7s.7.3.7.7-.3.7-.7.7-.7-.3-.7-.7Z"/>
  <path class="cls-4" d="M435.4,4c0-.4.3-.7.7-.7s.7.3.7.7-.3.7-.7.7-.7-.3-.7-.7Z"/>
  <path class="cls-4" d="M435.4,7.3c0-.4.3-.7.7-.7s.7.3.7.7-.3.7-.7.7-.7-.3-.7-.7Z"/>
  <path class="cls-4" d="M435.4.7c0-.4.3-.7.7-.7s.7.3.7.7-.3.7-.7.7-.7-.3-.7-.7Z"/>
  <path class="cls-4" d="M466.3,32.6c0-.4.3-.7.7-.7s.7.3.7.7-.3.7-.7.7-.7-.3-.7-.7Z"/>
  <path class="cls-4" d="M466.3,29.3c0-.4.3-.7.7-.7s.7.3.7.7-.3.7-.7.7-.7-.3-.7-.7Z"/>
  <path class="cls-4" d="M466.3,22.7c0-.4.3-.7.7-.7s.7.3.7.7-.3.7-.7.7-.7-.3-.7-.7Z"/>
  <path class="cls-4" d="M466.3,26c0-.4.3-.7.7-.7s.7.3.7.7-.3.7-.7.7-.7-.3-.7-.7Z"/>
  <path class="cls-4" d="M466.3,19.4c0-.4.3-.7.7-.7s.7.3.7.7-.3.7-.7.7-.7-.3-.7-.7Z"/>
  <path class="cls-4" d="M466.3,12.7c0-.4.3-.7.7-.7s.7.3.7.7-.3.7-.7.7-.7-.3-.7-.7Z"/>
  <path class="cls-4" d="M466.3,16.1c0-.4.3-.7.7-.7s.7.3.7.7-.3.7-.7.7-.7-.3-.7-.7Z"/>
  <path class="cls-4" d="M466.3,9.5c0-.4.3-.7.7-.7s.7.3.7.7-.3.7-.7.7-.7-.3-.7-.7Z"/>
  <path class="cls-4" d="M462.9,19.4c0-.4.3-.7.7-.7s.7.3.7.7-.3.7-.7.7-.7-.3-.7-.7Z"/>
  <path class="cls-4" d="M462.9,12.7c0-.4.3-.7.7-.7s.7.3.7.7-.3.7-.7.7-.7-.3-.7-.7Z"/>
  <path class="cls-4" d="M462.9,16.1c0-.4.3-.7.7-.7s.7.3.7.7-.3.7-.7.7-.7-.3-.7-.7Z"/>
  <path class="cls-4" d="M462.9,9.5c0-.4.3-.7.7-.7s.7.3.7.7-.3.7-.7.7-.7-.3-.7-.7Z"/>
  <path class="cls-4" d="M469.6,12.7c0-.4.3-.7.7-.7s.7.3.7.7-.3.7-.7.7-.7-.3-.7-.7Z"/>
  <path class="cls-4" d="M469.6,16.1c0-.4.3-.7.7-.7s.7.3.7.7-.3.7-.7.7-.7-.3-.7-.7Z"/>
  <path class="cls-4" d="M469.6,9.5c0-.4.3-.7.7-.7s.7.3.7.7-.3.7-.7.7-.7-.3-.7-.7Z"/>
  <path class="cls-4" d="M431.2,16.7s.5-.6,1.2,0c0,0-.4.4-1.2,0ZM433.5,13.5v.7h-.3c0-.2-.1-.4-.2-.4,0,0,.2-.2.4-.3M434,13.5c.2,0,.4.2.4.3,0,0,0,.3-.2.4h-.3v-.7ZM438.7,18.1c0-.1-1-1-1-1,.3-.8.1-1.1.1-1.1-.6.8-1,.2-1,.2.5-.9,0-1.1,0-1.1,0,0,0,.8-.6.5-.7-.3-.7-.8-1.6-.9l.3-.9h0c0-.5-.5-.8-1.1-.9,0,0,.1,0,.1-.1,0,0,0-.1,0-.2,0,0,0-.1-.1-.2,0,0-.1,0-.2,0-.2,0-.3.1-.3.3s0,.2.2.3c-.6,0-1,.4-1,.8h0s.3.9.3.9h0c-.8.2-.9.6-.9.6-.5,0-1.2.4-.8,1.4-.2-.1-.5-.3-.7-.6,0,0,0,1.3,1.3,1.3s1.1-.3,1.4-.3c0,0,0,.1-.2.1-.2,0-.7,0-.9.3,0,0,.5.6,1.6.1,0,0,1,0,1.5.8.3.5-.3,1-.3,1,0,0,.6,0,.8-.3.3-.3,0,.4-.8.8-.2.1,1,.3,1.4,0,0,0,0,.3-.3.5-.3.2-.9,0-.9,0,0,0-.4,0-.7.1,0,0-.7.3-.8.3,0,0-.7.4-.5-.5v-.5c0-.2-.1-.3-.1-.3,0,0-1-.6-1.1-1.1l-.4.2c-1.3-.8-1.9-2.5-1.6-4.3,0,0,0-.2-.2,0-.1.1-2,1.5-.2,4.3,0,0-1.5-1.1-1.7-3.7,0,0-.9,1.2,1.4,4.1,0,0-1.5-.8-2-2.8,0,0-1.6,2,1.3,4.4,0,0-1.4-.7-2.2-1.8,0,0,.3,1.5,2.7,2.5,0,0-1.2,0-2.7-1,0,0-.2,1.4,2.2,2.4,0,0-.8,0-2.2-.7,0,0,0,.7,2.4,1.1,0,0-.8.3-2.4-.3,0,0,.2,1.7,3.2,1.7,0,0-.9.4-2.9.1,0,0,1,.8,3,.1,0,0-.7.8-2.9.4,0,0,1.2,2.1,4,.8,0,0-.8,1.1-2.9,1.2,0,0,1.6.5,3.4-1,0,0-1.4,1.4-2.5,1.8,0,0,2,1.2,4.5-1.6,0,0-.6,1-1.1,1.5.6,0,1.5-1.7,1.6-1.9,0,0-.3,1.4-.5,1.7,0,0,.8.4,2.1-2.1,0,0,0,.4-.2.7-.1.3.2,0,.2,0,0,0,.3,0,.6-1.4v.7c0,0,0,.3,0,.3h.4c.4-.3,0,.1,0,.1,0,0-.8,0-1.9,1.7,0,0,0,.3-1.1.6,0,0-.3,0,0,.2l.4.4v.7s-1.1,1.2-1.1,1.2c-.5.6-.6-.2-.6-.2v-.7c-.2-1.2-2-1.7-2.1-.4,0,0,.4-.2.6,0,.1.2,0,.2,0,.2,0,0,.3.2.4.4.1.1,0,.8,0,.8,0,0,0,.2.2.4,0,0-.8-.6-1.4-.7-1.8-.3-1.9,1.8-1.2,1.7,0,0-.2-.1,0-.5,0-.2.3,0,.3,0h1.3c.5,0,.4.2.2.3-.4.3-1,.7-.5,1.7,0,0-.1.5.6.6.7,0,.6-.3.6-.3,0,0-.7.2-.6-.3,0-.3.4-.2.4-.2,0,0,.4-.9,1.1-1.2.6-.3,1.1.2,1.1.2,0,0,0,.6.6.7,0,0,.1.4-.3.5,0,0,.5.3.8-.4,0,0,.5-.3.5-.7,0-.4-.6-.9-.9-.9l1.6-1.6s0,.7.7,1c0,0,.2-.4,0-.9l.7.4s-.2-1,0-1.4c.2-.4.5-1,.5-1,0,0,.3,1.2-.1,2.3,0,0,.1.2.8-.3,0,0-.8,2.4-2.5,1.1,0,0-.2,2.4,2.3.8,0,0,0,.5-1.4.9-.9.2-1.3,1.7-1.3,1.7,0,0,.9-.7,1.3-.8.4-.2,1.5-.5,1.7-.8,0,0-.3.8-2,1.4-2.2.8-2.2,3.2-.5,3,0,0-.5-.7-.3-1.2,0,0,.3-.3,1.2-.9,0,0,.9-.5,1.1-.6,0,0-1,1.1-1.2,1.6-.2.6-.5,1.8.6,2,0,0-.3-1.1.5-1.9,0,0,1-1.2,1.4-1.4,0,0-.2,1.7-1.5,2.8,0,0,.4.2,1,.4,0,0-.4,1.4.9,2.1v-22.1l-.4-.5h0Z"/>
  <path class="cls-4" d="M452.4,32.6v-1.9h-1v1.9h-1.9v1h1.9v1.9h1v-1.9h1.9v-1h-1.9Z"/>
  <path class="cls-4" d="M439.1,38.4h19.4V6.3h-19.4v32.1ZM457.5,17h-1.9v-1.9h-1v1.9h-1.9v1h1.9v1.9h1v-1.9h1.9v1.9h-4.9v9.7l3.8,3.5-4.5,4.6-4.7-4.6,3.4-3.5v-15.6h6.8v2.9h0Z"/>
</svg>