<?xml version="1.0" encoding="UTF-8"?>
<svg id="a" data-name="Layer 1" xmlns="http://www.w3.org/2000/svg" viewBox="0 0 94.6 41.8">
  <defs>
    <style>
      .b {
        fill: #fff;
      }

      .b, .c {
        fill-rule: evenodd;
        stroke-width: 0px;
      }

      .c {
        fill: #000;
      }
    </style>
  </defs>
  <path class="c" d="M6.62627,36.2961h1.95981c2.42156,0,4.94566-.3831,4.94566-3.0947,0-2.9031-2.5959-3.1753-4.88409-3.1753h-2.03164v6.27h.01026ZM6.62627,25.2178h1.85721c2.17526,0,4.41216-.5746,4.41216-2.83262,0-2.44953-2.1343-2.6713-4.34034-2.6713h-1.92903v5.50392ZM.00806,14.66362h11.43047c4.6277,0,8.0753,2.17736,8.0753,6.76392,0,3.36686-1.6007,5.24176-4.3814,6.22966v.0807c3.3143.7257,5.0175,2.6309,5.0175,5.8869,0,6.3809-5.233,7.7215-9.6861,7.7215H.00806V14.66362Z"/>
  <path class="c" d="M25.85493,34.7639c1.7135.9979,4.094,1.754,6.8337,1.754,2.1034,0,4.094-.4537,4.094-2.6008,0-4.9696-11.7486-1.8346-11.7486-11.542,0-6.41111,5.8384-8.1651,10.8252-8.1651,2.3805,0,4.7404.38305,6.4129.98787l-.4309,5.50388c-1.7136-.83667-3.6323-1.21972-5.5203-1.21972-1.6725,0-4.4532.1512-4.4532,2.47977,0,4.31439,11.7486,1.41125,11.7486,11.04809,0,6.9151-5.4074,8.7901-10.9277,8.7901-2.3087,0-5.192-.3831-7.4083-1.1492l.5746-5.8869Z"/>
  <path class="c" d="M49.38293,14.66362h6.6285v21.40058h10.2505v5.2721h-16.879V14.66362Z"/>
  <path class="c" d="M80.96564,20.1675h-.0718l-3.2014,10.4332h6.2283l-2.9551-10.4332ZM76.90244,14.66362h8.1162l9.5733,26.67268h-7.2646l-1.8469-5.6954h-9.3271l-1.9598,5.6954h-6.7311l9.44-26.67268Z"/>
  <path class="b" d="M.0182,36.0441h3.29371v1.008h-1.98033v1.1492h1.89825v.998h-1.89825v2.1269H.0182v-5.2821Z"/>
  <path class="b" d="M27.93793,40.0259c.3386.2016.8106.3528,1.3544.3528.4207,0,.8106-.0907.8106-.5141,0-.9878-2.3189-.3628-2.3189-2.2781,0-1.2701,1.1492-1.623,2.1445-1.623.472,0,.9337.0706,1.262.1916l-.082,1.0887c-.3386-.1613-.7183-.242-1.0877-.242-.3283,0-.8824.0303-.8824.494,0,.8568,2.3292.2822,2.3292,2.1874,0,1.3709-1.0774,1.7338-2.165,1.7338-.4515,0-1.0261-.0705-1.4673-.2217l.1128-1.1694h-.0102Z"/>
  <path class="b" d="M58.32003,37.1328h-.0102l-.6362,2.0665h1.2313l-.5849-2.0665ZM57.50943,36.0441h1.6007l1.8982,5.2821h-1.4365l-.3694-1.129h-1.8469l-.3899,1.129h-1.3339l1.8674-5.2821h.0103Z"/>
  <path class="b" d="M88.69193,38.4836h.3387c.4514,0,.8106-.1714.8106-.7258s-.3592-.7057-.8106-.7057h-.3387v1.4315ZM87.38883,36.0441h1.5597c1.498,0,2.206.5444,2.206,1.7338,0,1.0686-.7285,1.7036-1.9495,1.7036h-.5028v1.8447h-1.3134v-5.2821Z"/>
</svg>