<?xml version="1.0" encoding="UTF-8"?>
<svg id="a" data-name="Layer 1" xmlns="http://www.w3.org/2000/svg" viewBox="0 0 53.20901 41.8">
  <defs>
    <style>
      .b {
        fill: #231f20;
        stroke-width: 0px;
      }
    </style>
  </defs>
  <path class="b" d="M5.24402,39.47804c-.46701,0-.84399.3766-.84399.8438s.37698.8438.84399.8438.84399-.3766.84399-.8438-.37698-.8438-.84399-.8438Z"/>
  <path class="b" d="M5.24402,37.27444c-.46701,0-.84399.3766-.84399.8438s.37698.8438.84399.8438.84399-.3766.84399-.8438-.37698-.8438-.84399-.8438Z"/>
  <path class="b" d="M3.04703,8.66134c-.46701,0-.84402.3766-.84402.8439,0,.4672.37701.8438.84402.8438.46698,0,.84399-.3766.84399-.8438,0-.4673-.37701-.8439-.84399-.8439Z"/>
  <path class="b" d="M5.24402,35.07754c-.46701,0-.84399.3766-.84399.8438s.37698.8438.84399.8438.84399-.3766.84399-.8438-.37698-.8438-.84399-.8438Z"/>
  <path class="b" d="M3.04703,10.86484c-.46701,0-.84402.3766-.84402.8438,0,.4673.37701.8439.84402.8439.46698,0,.84399-.3766.84399-.8439,0-.4672-.37701-.8438-.84399-.8438Z"/>
  <path class="b" d="M5.24402,21.86954c-.46701,0-.84399.3765-.84399.8438,0,.4672.37698.8438.84399.8438s.84399-.3766.84399-.8438c0-.4673-.37698-.8438-.84399-.8438Z"/>
  <path class="b" d="M5.24402,32.87394c-.46701,0-.84399.3765-.84399.8438,0,.4672.37698.8438.84399.8438s.84399-.3766.84399-.8438c0-.4673-.37698-.8438-.84399-.8438Z"/>
  <path class="b" d="M5.24402,24.07314c-.46701,0-.84399.3766-.84399.8438s.37698.8438.84399.8438.84399-.3766.84399-.8438-.37698-.8438-.84399-.8438Z"/>
  <path class="b" d="M5.24402,30.67014c-.46701,0-.84399.3766-.84399.8438,0,.4673.37698.8439.84399.8439s.84399-.3766.84399-.8439c0-.4672-.37698-.8438-.84399-.8438Z"/>
  <path class="b" d="M5.24402,28.47354c-.46701,0-.84399.3765-.84399.8438,0,.4672.37698.8438.84399.8438s.84399-.3766.84399-.8438c0-.4673-.37698-.8438-.84399-.8438Z"/>
  <path class="b" d="M5.24402,26.26994c-.46701,0-.84399.3765-.84399.8438,0,.4672.37698.8438.84399.8438s.84399-.3766.84399-.8438c0-.4673-.37698-.8438-.84399-.8438Z"/>
  <path class="b" d="M3.04703,28.47354c-.46701,0-.84402.3765-.84402.8438,0,.4672.37701.8438.84402.8438.46698,0,.84399-.3766.84399-.8438,0-.4673-.37701-.8438-.84399-.8438Z"/>
  <path class="b" d="M3.04703,24.07314c-.46701,0-.84402.3766-.84402.8438s.37701.8438.84402.8438c.46698,0,.84399-.3766.84399-.8438s-.37701-.8438-.84399-.8438Z"/>
  <path class="b" d="M3.04703,13.06164c-.46701,0-.84402.3766-.84402.8438,0,.4673.37701.8438.84402.8438.46698,0,.84399-.3765.84399-.8438,0-.4672-.37701-.8438-.84399-.8438Z"/>
  <path class="b" d="M3.04703,32.87394c-.46701,0-.84402.3765-.84402.8438,0,.4672.37701.8438.84402.8438.46698,0,.84399-.3766.84399-.8438,0-.4673-.37701-.8438-.84399-.8438Z"/>
  <path class="b" d="M3.04703,30.67014c-.46701,0-.84402.3766-.84402.8438,0,.4673.37701.8439.84402.8439.46698,0,.84399-.3766.84399-.8439,0-.4672-.37701-.8438-.84399-.8438Z"/>
  <path class="b" d="M3.04703,26.26994c-.46701,0-.84402.3765-.84402.8438,0,.4672.37701.8438.84402.8438.46698,0,.84399-.3766.84399-.8438,0-.4673-.37701-.8438-.84399-.8438Z"/>
  <path class="b" d="M3.04703,15.26534c-.46701,0-.84402.3766-.84402.8439,0,.4672.37701.8438.84402.8438.46698,0,.84399-.3766.84399-.8438,0-.4673-.37701-.8439-.84399-.8439Z"/>
  <path class="b" d="M3.04703,17.46914c-.46701,0-.84402.3766-.84402.8368,0,.4603.37701.8438.84402.8438.46698,0,.84399-.3765.84399-.8438,0-.4672-.37701-.8368-.84399-.8368Z"/>
  <path class="b" d="M3.04703,21.86954c-.46701,0-.84402.3765-.84402.8438,0,.4672.37701.8438.84402.8438.46698,0,.84399-.3766.84399-.8438,0-.4673-.37701-.8438-.84399-.8438Z"/>
  <path class="b" d="M3.04703,19.66564c-.46701,0-.84402.3766-.84402.8438,0,.4673.37701.8438.84402.8438.46698,0,.84399-.3765.84399-.8438,0-.4672-.37701-.8438-.84399-.8438Z"/>
  <path class="b" d="M7.44702,39.47804c-.46701,0-.84399.3766-.84399.8438s.37698.8438.84399.8438c.46799,0,.84399-.3766.84399-.8438s-.37601-.8438-.84399-.8438Z"/>
  <path class="b" d="M7.44702,19.66564c-.46701,0-.84399.3766-.84399.8438,0,.4673.37698.8438.84399.8438.46799,0,.84399-.3765.84399-.8438,0-.4672-.37601-.8438-.84399-.8438Z"/>
  <path class="b" d="M7.44702,21.86954c-.46701,0-.84399.3765-.84399.8438,0,.4672.37698.8438.84399.8438.46799,0,.84399-.3766.84399-.8438,0-.4673-.37601-.8438-.84399-.8438Z"/>
  <path class="b" d="M7.44702,17.46914c-.46701,0-.84399.3766-.84399.8368,0,.4603.37698.8438.84399.8438.46799,0,.84399-.3765.84399-.8438,0-.4672-.37601-.8368-.84399-.8368Z"/>
  <path class="b" d="M7.44702,24.07314c-.46701,0-.84399.3766-.84399.8438s.37698.8438.84399.8438c.46799,0,.84399-.3766.84399-.8438s-.37601-.8438-.84399-.8438Z"/>
  <path class="b" d="M7.44702,26.26994c-.46701,0-.84399.3765-.84399.8438,0,.4672.37698.8438.84399.8438.46799,0,.84399-.3766.84399-.8438,0-.4673-.37601-.8438-.84399-.8438Z"/>
  <path class="b" d="M9.64401,35.07754c-.46701,0-.84399.3766-.84399.8438s.37698.8438.84399.8438.84399-.3766.84399-.8438-.37698-.8438-.84399-.8438Z"/>
  <path class="b" d="M9.64401,39.47804c-.46701,0-.84399.3766-.84399.8438s.37698.8438.84399.8438.84399-.3766.84399-.8438-.37698-.8438-.84399-.8438Z"/>
  <path class="b" d="M7.44702,28.47354c-.46701,0-.84399.3765-.84399.8438,0,.4672.37698.8438.84399.8438.46799,0,.84399-.3766.84399-.8438,0-.4673-.37601-.8438-.84399-.8438Z"/>
  <path class="b" d="M9.64401,32.87394c-.46701,0-.84399.3765-.84399.8438,0,.4672.37698.8438.84399.8438s.84399-.3766.84399-.8438c0-.4673-.37698-.8438-.84399-.8438Z"/>
  <path class="b" d="M9.64401,37.27444c-.46701,0-.84399.3766-.84399.8438s.37698.8438.84399.8438.84399-.3766.84399-.8438-.37698-.8438-.84399-.8438Z"/>
  <path class="b" d="M5.24402,19.66564c-.46701,0-.84399.3766-.84399.8438,0,.4673.37698.8438.84399.8438s.84399-.3765.84399-.8438c0-.4672-.37698-.8438-.84399-.8438Z"/>
  <path class="b" d="M5.24402,10.86484c-.46701,0-.84399.3766-.84399.8438,0,.4673.37698.8439.84399.8439s.84399-.3766.84399-.8439c0-.4672-.37698-.8438-.84399-.8438Z"/>
  <path class="b" d="M7.44702,30.67014c-.46701,0-.84399.3766-.84399.8438,0,.4673.37698.8439.84399.8439.46799,0,.84399-.3766.84399-.8439,0-.4672-.37601-.8438-.84399-.8438Z"/>
  <path class="b" d="M5.24402,13.06164c-.46701,0-.84399.3766-.84399.8438,0,.4673.37698.8438.84399.8438s.84399-.3765.84399-.8438c0-.4672-.37698-.8438-.84399-.8438Z"/>
  <path class="b" d="M5.24402,15.26534c-.46701,0-.84399.3766-.84399.8439,0,.4672.37698.8438.84399.8438s.84399-.3766.84399-.8438c0-.4673-.37698-.8439-.84399-.8439Z"/>
  <path class="b" d="M5.24402,17.46914c-.46701,0-.84399.3766-.84399.8368,0,.4603.37698.8438.84399.8438s.84399-.3765.84399-.8438c0-.4672-.37698-.8368-.84399-.8368Z"/>
  <path class="b" d="M5.24402,8.66134c-.46701,0-.84399.3766-.84399.8439,0,.4672.37698.8438.84399.8438s.84399-.3766.84399-.8438c0-.4673-.37698-.8439-.84399-.8439Z"/>
  <path class="b" d="M3.04703,35.07754c-.46701,0-.84402.3766-.84402.8438s.37701.8438.84402.8438c.46698,0,.84399-.3766.84399-.8438s-.37701-.8438-.84399-.8438Z"/>
  <path class="b" d="M7.44702,35.07754c-.46701,0-.84399.3766-.84399.8438s.37698.8438.84399.8438c.46799,0,.84399-.3766.84399-.8438s-.37601-.8438-.84399-.8438Z"/>
  <path class="b" d="M7.44702,32.87394c-.46701,0-.84399.3765-.84399.8438,0,.4672.37698.8438.84399.8438.46799,0,.84399-.3766.84399-.8438,0-.4673-.37601-.8438-.84399-.8438Z"/>
  <path class="b" d="M7.44702,37.27444c-.46701,0-.84399.3766-.84399.8438s.37698.8438.84399.8438c.46799,0,.84399-.3766.84399-.8438s-.37601-.8438-.84399-.8438Z"/>
  <path class="b" d="M14.05103,28.47354c-.46701,0-.84402.3765-.84402.8438,0,.4672.37701.8438.84402.8438.46799,0,.83698-.3766.83698-.8438,0-.4673-.37598-.8438-.83698-.8438Z"/>
  <path class="b" d="M14.05103,14.74924c.461,0,.83698-.3765.83698-.8438,0-.4672-.37598-.8438-.83698-.8438-.46002,0-.84402.3766-.84402.8438,0,.4673.37701.8438.84402.8438Z"/>
  <path class="b" d="M14.05103,26.26994c-.46701,0-.84402.3765-.84402.8438,0,.4672.37701.8438.84402.8438.46799,0,.83698-.3766.83698-.8438,0-.4673-.37598-.8438-.83698-.8438Z"/>
  <path class="b" d="M16.24802,16.95304c.45999,0,.84399-.3766.84399-.8438,0-.4673-.37698-.8439-.84399-.8439s-.84399.3766-.84399.8439c0,.4672.37698.8438.84399.8438Z"/>
  <path class="b" d="M14.05103,16.95304c.461,0,.83698-.3766.83698-.8438,0-.4673-.37598-.8439-.83698-.8439-.46002,0-.84402.3766-.84402.8439,0,.4672.37701.8438.84402.8438Z"/>
  <path class="b" d="M9.64401,30.67014c-.46701,0-.84399.3766-.84399.8438,0,.4673.37698.8439.84399.8439s.84399-.3766.84399-.8439c0-.4672-.37698-.8438-.84399-.8438Z"/>
  <path class="b" d="M14.05103,32.35784c.461,0,.83698-.3766.83698-.8439,0-.4672-.37598-.8438-.83698-.8438-.46002,0-.84402.3766-.84402.8438,0,.4673.37701.8439.84402.8439Z"/>
  <path class="b" d="M11.84802,10.34904c.45999,0,.83701-.3766.83701-.8438,0-.4673-.37701-.8439-.83701-.8439-.46002,0-.84399.3766-.84399.8439,0,.4672.37698.8438.84399.8438Z"/>
  <path class="b" d="M14.05103,24.07314c-.46701,0-.84402.3766-.84402.8438s.37701.8438.84402.8438c.46799,0,.83698-.3766.83698-.8438s-.37598-.8438-.83698-.8438Z"/>
  <path class="b" d="M11.84802,12.54554c.45999,0,.83701-.3766.83701-.8438,0-.4673-.37701-.8438-.83701-.8438-.46002,0-.84399.3765-.84399.8438,0,.4672.37698.8438.84399.8438Z"/>
  <path class="b" d="M16.24802,14.74924c.45999,0,.84399-.3766.84399-.8368,0-.4603-.37698-.8438-.84399-.8438s-.84399.3765-.84399.8438c0,.4672.37698.8368.84399.8368Z"/>
  <path class="b" d="M16.24802,12.54554c.45999,0,.84399-.3766.84399-.8438,0-.4673-.37698-.8438-.84399-.8438s-.84399.3765-.84399.8438c0,.4672.37698.8438.84399.8438Z"/>
  <path class="b" d="M42.66501,19.14974c.46701,0,.84399-.3766.84399-.8438,0-.4673-.37698-.8369-.84399-.8369-.11398-.0046-.22699.0137-.332.0539-.10599.0401-.203.1013-.285.1798-.082.0785-.147.1727-.19098.2769-.04501.1043-.06802.2164-.06802.3298,0,.1133.02301.2255.06802.3297.04398.1043.10898.1985.19098.2769.082.0785.17902.1397.285.1798.10501.0402.21802.0585.332.0539Z"/>
  <path class="b" d="M42.66501,14.74924c.46701,0,.84302-.3765.84302-.8438,0-.4672-.37601-.8438-.84302-.8438-.46799,0-.84399.3766-.84399.8438,0,.4673.37601.8438.84399.8438Z"/>
  <path class="b" d="M42.66501,16.95304c.46701,0,.84302-.3766.84302-.8438,0-.4673-.37601-.8439-.84302-.8439-.46799,0-.84399.3766-.84399.8439,0,.4672.37601.8438.84399.8438Z"/>
  <path class="b" d="M42.66501,12.54554c.45999,0,.836-.3766.84302-.8368,0-.4673-.37601-.8508-.84302-.8508-.46799,0-.84399.3765-.84399.8438,0,.4602.37601.8438.84399.8438Z"/>
  <path class="b" d="M11.84802,14.74924c.46698,0,.84399-.3765.84399-.8438,0-.4672-.37701-.8438-.84399-.8438-.46701,0-.84399.3766-.84399.8438,0,.4673.37698.8438.84399.8438Z"/>
  <path class="b" d="M3.04703,37.27444c-.46701,0-.84402.3766-.84402.8438s.37701.8438.84402.8438c.46698,0,.84399-.3766.84399-.8438s-.37701-.8438-.84399-.8438Z"/>
  <path class="b" d="M20.65601,10.34904c.46002,0,.83701-.3766.83701-.8438,0-.4673-.37698-.8439-.83701-.8439-.45999,0-.84399.3766-.84399.8439,0,.4672.37701.8438.84399.8438Z"/>
  <path class="b" d="M16.24802,10.34904c.45999,0,.84399-.3766.84399-.8438,0-.4673-.37698-.8439-.84399-.8439s-.84399.3766-.84399.8439c0,.4672.37698.8438.84399.8438Z"/>
  <path class="b" d="M20.65601,14.74924c.46002,0,.83701-.3765.83701-.8438,0-.4672-.37698-.8438-.83701-.8438-.45999,0-.84399.3766-.84399.8438,0,.4673.37701.8438.84399.8438Z"/>
  <path class="b" d="M20.65601,12.54554c.453,0,.83002-.3766.83701-.8299,0-.4672-.37698-.8508-.83701-.8508-.45999,0-.84399.3766-.84399.8438,0,.4673.37701.8439.84399.8439"/>
  <path class="b" d="M42.66501,10.34904c.46701,0,.84302-.3766.84302-.8438,0-.4673-.37601-.8439-.84302-.8439-.46799,0-.84399.3766-.84399.8439,0,.4602.37601.8438.84399.8438Z"/>
  <path class="b" d="M.84402,24.07314c-.461,0-.84402.3766-.84402.8368,0,.4603.37601.8439.84402.8439.46698,0,.84299-.3766.84299-.8439,0-.4672-.37601-.8438-.84299-.8438"/>
  <path class="b" d="M.84402,26.26994c-.461,0-.84402.3765-.84402.8438,0,.4672.37601.8438.84402.8438.46698,0,.84299-.3766.84299-.8438,0-.4673-.37601-.8438-.84299-.8438Z"/>
  <path class="b" d="M.84402,28.47354c-.461,0-.84402.3765-.84402.8438,0,.4672.37601.8438.84402.8438.46698,0,.84299-.3766.84299-.8438,0-.4673-.37601-.8438-.84299-.8438Z"/>
  <path class="b" d="M.84402,35.07754c-.46802,0-.84402.3766-.84402.8438s.37601.8438.84402.8438c.46698,0,.84299-.3766.84299-.8438s-.37601-.8438-.84299-.8438Z"/>
  <path class="b" d="M.84402,30.67014c-.461,0-.84402.3766-.84402.8438,0,.4673.37601.8439.84402.8439.46698,0,.84299-.3766.84299-.8439,0-.4672-.37601-.8438-.84299-.8438Z"/>
  <path class="b" d="M.84402,32.87394c-.461,0-.84402.3765-.84402.8438,0,.4672.37601.8438.84402.8438.46698,0,.84299-.3766.84299-.8438,0-.4673-.37601-.8438-.84299-.8438Z"/>
  <path class="b" d="M3.04703,39.47804c-.46701,0-.84402.3766-.84402.8438s.37701.8438.84402.8438c.46698,0,.84399-.3766.84399-.8438s-.37701-.8438-.84399-.8438Z"/>
  <path class="b" d="M.84402,17.46914c-.461,0-.84402.3766-.84402.8368,0,.4603.37601.8438.84402.8438.46698,0,.84299-.3765.84299-.8438,0-.4672-.37601-.8368-.84299-.8368Z"/>
  <path class="b" d="M.84402,21.86954c-.461,0-.84402.3765-.84402.8438,0,.4672.37601.8438.84402.8438.46698,0,.84299-.3766.84299-.8438,0-.4673-.37601-.8438-.84299-.8438Z"/>
  <path class="b" d="M.84402,19.66564c-.461,0-.84402.3766-.84402.8438,0,.4673.37601.8438.84402.8438.46698,0,.84299-.3765.84299-.8438,0-.4672-.37601-.8438-.84299-.8438Z"/>
  <path class="b" d="M7.44702,10.34904c.461,0,.84399-.3766.84399-.8438,0-.4673-.37601-.8439-.84399-.8439-.46701,0-.84399.3766-.84399.8439,0,.4602.37698.8438.84399.8438Z"/>
  <path class="b" d="M7.44702,14.74924c.461,0,.84399-.3765.84399-.8438,0-.4672-.37601-.8438-.84399-.8438-.46701,0-.84399.3766-.84399.8438,0,.4673.37698.8438.84399.8438Z"/>
  <path class="b" d="M7.44702,16.95304c.461,0,.84399-.3766.84399-.8438,0-.4673-.37601-.8439-.84399-.8439-.46701,0-.84399.3766-.84399.8439,0,.4672.37698.8438.84399.8438Z"/>
  <path class="b" d="M.84402,10.34904c.45999,0,.836-.3766.836-.8438,0-.4673-.37601-.8439-.836-.8439-.461,0-.84402.3766-.84402.8439,0,.4672.37601.8438.84402.8438Z"/>
  <path class="b" d="M11.00403,16.10924c0,.4672.37698.8438.84399.8438.46698,0,.83701-.3766.83701-.8438,0-.4673-.37701-.8439-.83701-.8439-.46002,0-.84399.3766-.84399.8439Z"/>
  <path class="b" d="M7.44702,12.54554c.461,0,.84399-.3766.84399-.8438,0-.4673-.37601-.8438-.84399-.8438-.46701,0-.84399.3765-.84399.8438,0,.4602.37698.8438.84399.8438Z"/>
  <path class="b" d="M.84402,12.54554c.45999,0,.836-.3766.836-.8438,0-.4673-.37601-.8438-.836-.8438-.461,0-.84402.3835-.84402.8508,0,.4672.37601.8438.84402.8438"/>
  <path class="b" d="M.84402,16.95304c.45999,0,.836-.3766.836-.8438,0-.4673-.37601-.8439-.836-.8439-.461,0-.84402.3766-.84402.8439,0,.4672.37601.8438.84402.8438Z"/>
  <path class="b" d="M.84402,37.27444c-.46802,0-.84402.3766-.84402.8438s.37601.8438.84402.8438c.46698,0,.84299-.3766.84299-.8438s-.37601-.8438-.84299-.8438Z"/>
  <path class="b" d="M.84402,39.47804c-.46802,0-.84402.3766-.84402.8438s.37601.8438.84402.8438c.46698,0,.836-.3766.836-.8438s-.37601-.8438-.836-.8438Z"/>
  <path class="b" d="M.84402,14.74924c.45999,0,.836-.3765.836-.8438,0-.4672-.37601-.8438-.836-.8438-.461,0-.84402.3766-.84402.8438,0,.4673.37601.8438.84402.8438Z"/>
  <path class="b" d="M9.64401,10.86484c-.46701,0-.84399.3766-.84399.8438,0,.4673.37698.8439.84399.8439s.83701-.3766.84399-.8369c0-.4672-.37698-.8508-.84399-.8508Z"/>
  <path class="b" d="M20.65601,30.67014c-.46698,0-.84399.3766-.84399.8438,0,.4673.37701.8439.84399.8439.46701,0,.84399-.3766.84399-.8439,0-.4672-.37698-.8438-.84399-.8438Z"/>
  <path class="b" d="M20.65601,32.87394c-.46698,0-.84399.3765-.84399.8438,0,.4672.37701.8438.84399.8438.46701,0,.84399-.3766.84399-.8438,0-.4673-.37698-.8438-.84399-.8438Z"/>
  <path class="b" d="M20.65601,35.07754c-.46698,0-.84399.3766-.84399.8438s.37701.8438.84399.8438c.46701,0,.84399-.3766.84399-.8438s-.37698-.8438-.84399-.8438Z"/>
  <path class="b" d="M20.65601,37.27444c-.46698,0-.84399.3766-.84399.8438s.37701.8438.84399.8438c.46701,0,.84399-.3766.84399-.8438s-.37698-.8438-.84399-.8438Z"/>
  <path class="b" d="M20.64902,39.47804c-.46701,0-.84399.3766-.84399.8438s.37698.8438.84399.8438.84399-.3766.84399-.8438c0-.4603-.37698-.8438-.84399-.8438Z"/>
  <path class="b" d="M20.65601,28.47354c-.46698,0-.84399.3765-.84399.8438,0,.4672.37701.8438.84399.8438.46701,0,.84399-.3766.84399-.8438,0-.4673-.37698-.8438-.84399-.8438Z"/>
  <path class="b" d="M18.45203,8.66134c-.46701,0-.84402.3766-.84402.8439,0,.4672.37701.8438.84402.8438.46698,0,.84399-.3766.84399-.8438,0-.4673-.37701-.8439-.84399-.8439Z"/>
  <path class="b" d="M20.65601,21.86954c-.46698,0-.84399.3765-.84399.8438,0,.4672.37701.8438.84399.8438.46701,0,.84399-.3766.84399-.8438,0-.4673-.37698-.8438-.84399-.8438Z"/>
  <path class="b" d="M20.65601,24.07314c-.46698,0-.84399.3766-.84399.8438s.37701.8438.84399.8438c.46701,0,.84399-.3766.84399-.8438s-.37698-.8438-.84399-.8438Z"/>
  <path class="b" d="M20.65601,26.26994c-.46698,0-.84399.3765-.84399.8438,0,.4672.37701.8438.84399.8438.46701,0,.84399-.3766.84399-.8438,0-.4673-.37698-.8438-.84399-.8438Z"/>
  <path class="b" d="M20.65601,19.66564c-.46698,0-.84399.3766-.84399.8438,0,.4673.37701.8438.84399.8438.46701,0,.84399-.3765.84399-.8438,0-.4602-.37698-.8438-.84399-.8438Z"/>
  <path class="b" d="M18.45203,26.26994c-.46701,0-.84402.3765-.84402.8438,0,.4672.37701.8438.84402.8438.46698,0,.83698-.3766.83698-.8438,0-.4673-.37698-.8438-.83698-.8438Z"/>
  <path class="b" d="M18.45203,24.07314c-.46701,0-.84402.3766-.84402.8438s.37701.8438.84402.8438c.46698,0,.83698-.3766.83698-.8438s-.37698-.8438-.83698-.8438Z"/>
  <path class="b" d="M18.45203,28.47354c-.46701,0-.84402.3765-.84402.8438,0,.4672.37701.8438.84402.8438.46698,0,.83698-.3766.83698-.8438,0-.4673-.37698-.8438-.83698-.8438Z"/>
  <path class="b" d="M18.45203,30.67014c-.46701,0-.84402.3766-.84402.8438,0,.4673.37701.8439.84402.8439.46698,0,.83698-.3766.83698-.8439,0-.4672-.37698-.8438-.83698-.8438Z"/>
  <path class="b" d="M9.64401,28.47354c-.46701,0-.84399.3765-.84399.8438,0,.4672.37698.8438.84399.8438s.84399-.3766.84399-.8438c0-.4673-.37698-.8438-.84399-.8438Z"/>
  <path class="b" d="M18.45203,13.06164c-.46701,0-.84402.3766-.84402.8438,0,.4673.37701.8438.84402.8438.46698,0,.84399-.3765.84399-.8438,0-.4602-.37701-.8438-.84399-.8438Z"/>
  <path class="b" d="M18.45203,19.66564c-.46701,0-.84402.3766-.84402.8438,0,.4673.37701.8438.84402.8438.46698,0,.83698-.3765.83698-.8438,0-.4672-.37698-.8438-.83698-.8438Z"/>
  <path class="b" d="M18.45203,15.26534c-.46701,0-.84402.3766-.84402.8439,0,.4672.37701.8438.84402.8438.46698,0,.83698-.3766.83698-.8438,0-.4673-.37698-.8439-.83698-.8439Z"/>
  <path class="b" d="M18.45203,10.86484c-.46701,0-.84402.3766-.84402.8438,0,.4673.37701.8439.84402.8439.46698,0,.84399-.3766.84399-.8439,0-.4672-.37701-.8438-.84399-.8438Z"/>
  <path class="b" d="M18.45203,17.46914c-.46701,0-.84402.3766-.84402.8368,0,.4603.37701.8438.84402.8438.46698,0,.83698-.3765.83698-.8438,0-.4672-.37698-.8368-.83698-.8368Z"/>
  <path class="b" d="M36.061,39.47804c-.46799,0-.84399.3766-.84399.8438s.37601.8438.84399.8438c.46701,0,.84302-.3766.84302-.8438s-.37601-.8438-.84302-.8438Z"/>
  <path class="b" d="M42.66501,30.67014c-.46799,0-.84399.3766-.84399.8438,0,.4673.37601.8439.84399.8439.46701,0,.84302-.3766.84302-.8439,0-.4672-.37601-.8438-.84302-.8438Z"/>
  <path class="b" d="M42.66501,39.47804c-.46799,0-.84399.3766-.84399.8438s.37601.8438.84399.8438c.46701,0,.84302-.3766.84302-.8438s-.37601-.8438-.84302-.8438Z"/>
  <path class="b" d="M42.66501,37.27444c-.46799,0-.84399.3766-.84399.8438s.37601.8438.84399.8438c.46701,0,.84302-.3766.84302-.8438s-.37601-.8438-.84302-.8438Z"/>
  <path class="b" d="M42.66501,35.07754c-.46799,0-.84399.3766-.84399.8438s.37601.8438.84399.8438c.46701,0,.84302-.3766.84302-.8438s-.37601-.8438-.84302-.8438Z"/>
  <path class="b" d="M42.66501,28.47354c-.46799,0-.84399.3765-.84399.8438,0,.4672.37601.8438.84399.8438.46701,0,.84302-.3766.84302-.8438,0-.4673-.37601-.8438-.84302-.8438Z"/>
  <path class="b" d="M42.66501,32.87394c-.46799,0-.84399.3765-.84399.8438,0,.4672.37601.8438.84399.8438.46701,0,.84302-.3766.84302-.8438,0-.4673-.37601-.8438-.84302-.8438Z"/>
  <path class="b" d="M42.66501,26.26994c-.46799,0-.84399.3765-.84399.8438,0,.4672.37601.8438.84399.8438.46701,0,.84302-.3766.84302-.8438,0-.4673-.37601-.8438-.84302-.8438Z"/>
  <path class="b" d="M42.66501,21.86954c-.46799,0-.84399.3765-.84399.8438,0,.4672.37601.8438.84399.8438.46701,0,.84302-.3766.84302-.8438,0-.4673-.37601-.8438-.84302-.8438Z"/>
  <path class="b" d="M42.66501,19.66564c-.46799,0-.84399.3766-.84399.8438,0,.4673.37601.8438.84399.8438.46701,0,.84302-.3765.84302-.8438,0-.4672-.37601-.8438-.84302-.8438Z"/>
  <path class="b" d="M42.66501,24.07314c-.46799,0-.84399.3766-.84399.8438s.37601.8438.84399.8438c.46701,0,.84302-.3766.84302-.8438s-.37601-.8438-.84302-.8438Z"/>
  <path class="b" d="M18.45203,32.87394c-.46701,0-.84402.3765-.84402.8438,0,.4672.37701.8438.84402.8438.46698,0,.83698-.3766.83698-.8438,0-.4673-.37698-.8438-.83698-.8438Z"/>
  <path class="b" d="M25.056,39.47804c-.45999,0-.84399.3766-.84399.8438s.37701.8438.84399.8438c.46701,0,.84402-.3766.84402-.8438,0-.4603-.37701-.8438-.84402-.8438Z"/>
  <path class="b" d="M29.45602,39.47804c-.46002,0-.836.3766-.836.8438s.37598.8438.836.8438c.461,0,.84399-.3766.84399-.8438s-.37601-.8438-.84399-.8438Z"/>
  <path class="b" d="M27.25302,39.47804c-.46802,0-.84399.3766-.84399.8438s.37598.8438.84399.8438c.46698,0,.83701-.3766.83701-.8438,0-.4603-.37701-.8438-.83701-.8438Z"/>
  <path class="b" d="M20.65601,15.26534c-.46698,0-.84399.3766-.84399.8439,0,.4672.37701.8438.84399.8438.46701,0,.84399-.3766.84399-.8438,0-.4603-.37698-.8439-.84399-.8439Z"/>
  <path class="b" d="M22.85202,39.47804c-.46701,0-.84302.3766-.84302.8438s.37601.8438.84302.8438c.46799,0,.84399-.3766.84399-.8438,0-.4603-.37601-.8438-.84399-.8438Z"/>
  <path class="b" d="M40.46103,39.47804c-.46002,0-.84402.3766-.84402.8438s.37701.8438.84402.8438c.46698,0,.84399-.3766.84399-.8438s-.37701-.8438-.84399-.8438Z"/>
  <path class="b" d="M20.65601,17.46914c-.46698,0-.84399.3766-.84399.8368,0,.4603.37701.8438.84399.8438.46701,0,.84399-.3765.84399-.8438,0-.4602-.37698-.8368-.84399-.8368Z"/>
  <path class="b" d="M31.66,39.47804c-.46698,0-.84399.3766-.84399.8438s.37701.8438.84399.8438c.46701,0,.84402-.3766.84402-.8438,0-.4603-.37701-.8438-.84402-.8438Z"/>
  <path class="b" d="M38.25702,39.47804c-.46701,0-.84302.3766-.84302.8438s.37601.8438.84302.8438c.46799,0,.84399-.3766.84399-.8438s-.37601-.8438-.84399-.8438Z"/>
  <path class="b" d="M33.85703,39.47804c-.46701,0-.84402.3766-.84402.8438s.37701.8438.84402.8438c.46698,0,.83698-.3766.83698-.8438s-.37698-.8438-.83698-.8438Z"/>
  <path class="b" d="M18.45203,21.86954c-.46701,0-.84402.3765-.84402.8438,0,.4672.37701.8438.84402.8438.46698,0,.83698-.3766.83698-.8438,0-.4673-.37698-.8438-.83698-.8438Z"/>
  <path class="b" d="M11.84802,26.26994c-.46701,0-.84399.3765-.84399.8438,0,.4672.37698.8438.84399.8438.46698,0,.83701-.3766.83701-.8438,0-.4673-.37701-.8438-.83701-.8438Z"/>
  <path class="b" d="M11.84802,24.07314c-.46701,0-.84399.3766-.84399.8438s.37698.8438.84399.8438c.46698,0,.83701-.3766.83701-.8438s-.37701-.8438-.83701-.8438Z"/>
  <path class="b" d="M11.84802,28.47354c-.46701,0-.84399.3765-.84399.8438,0,.4672.37698.8438.84399.8438.46698,0,.83701-.3766.83701-.8438,0-.4673-.37701-.8438-.83701-.8438Z"/>
  <path class="b" d="M11.84802,35.07754c-.46701,0-.84399.3766-.84399.8438s.37698.8438.84399.8438c.46698,0,.83701-.3766.83701-.8438s-.37701-.8438-.83701-.8438Z"/>
  <path class="b" d="M11.84802,32.87394c-.46701,0-.84399.3765-.84399.8438,0,.4672.37698.8438.84399.8438.46698,0,.83701-.3766.83701-.8438,0-.4673-.37701-.8438-.83701-.8438Z"/>
  <path class="b" d="M18.45203,35.07754c-.46701,0-.84402.3766-.84402.8438s.37701.8438.84402.8438c.46698,0,.83698-.3766.83698-.8438s-.37698-.8438-.83698-.8438Z"/>
  <path class="b" d="M14.05103,34.56154c.461,0,.83698-.3766.83698-.8438,0-.4673-.37598-.8438-.83698-.8438-.46002,0-.84402.3765-.84402.8438,0,.4672.37701.8438.84402.8438Z"/>
  <path class="b" d="M11.84802,17.46914c-.46701,0-.84399.3766-.84399.8368,0,.4603.37698.8438.84399.8438.46698,0,.84399-.3765.84399-.8438,0-.4602-.37701-.8368-.84399-.8368Z"/>
  <path class="b" d="M11.84802,21.35324c.45999,0,.83701-.3765.83701-.8438,0-.4672-.37701-.8438-.83701-.8438-.46002,0-.84399.3766-.84399.8438,0,.4673.37698.8438.84399.8438Z"/>
  <path class="b" d="M11.84802,21.86954c-.46701,0-.84399.3765-.84399.8438,0,.4672.37698.8438.84399.8438.46698,0,.84399-.3766.84399-.8438,0-.4673-.37701-.8438-.84399-.8438Z"/>
  <path class="b" d="M9.64401,14.74924c.461,0,.83701-.3765.83701-.8438,0-.4672-.37601-.8438-.83701-.8438-.45999,0-.84399.3766-.84399.8438,0,.4673.37698.8438.84399.8438Z"/>
  <path class="b" d="M9.64401,17.46914c-.46701,0-.84399.3766-.84399.8368,0,.4603.37698.8438.84399.8438s.84399-.3765.84399-.8438c0-.4672-.37698-.8368-.84399-.8368Z"/>
  <path class="b" d="M9.64401,19.66564c-.46701,0-.84399.3766-.84399.8438,0,.4673.37698.8438.84399.8438s.84399-.3765.84399-.8438c0-.4672-.37698-.8438-.84399-.8438Z"/>
  <path class="b" d="M9.64401,21.86954c-.46701,0-.84399.3765-.84399.8438,0,.4672.37698.8438.84399.8438s.84399-.3766.84399-.8438c0-.4673-.37698-.8438-.84399-.8438Z"/>
  <path class="b" d="M9.64401,26.26994c-.46701,0-.84399.3765-.84399.8438,0,.4672.37698.8438.84399.8438s.84399-.3766.84399-.8438c0-.4673-.37698-.8438-.84399-.8438Z"/>
  <path class="b" d="M9.64401,24.07314c-.46701,0-.84399.3766-.84399.8438s.37698.8438.84399.8438.84399-.3766.84399-.8438-.37698-.8438-.84399-.8438Z"/>
  <path class="b" d="M14.05103,39.47804c-.46701,0-.84402.3766-.84402.8438s.37701.8438.84402.8438c.46799,0,.84399-.3766.84399-.8438,0-.4603-.37601-.8438-.84399-.8438Z"/>
  <path class="b" d="M9.64401,8.66134c-.46701,0-.84399.3766-.84399.8439,0,.4672.37698.8438.84399.8438s.84399-.3766.84399-.8438c0-.4673-.37698-.8439-.84399-.8439Z"/>
  <path class="b" d="M11.84802,39.47804c-.46701,0-.84399.3766-.84399.8438s.37698.8438.84399.8438c.46698,0,.83701-.3766.83701-.8438,0-.4603-.37701-.8438-.83701-.8438Z"/>
  <path class="b" d="M9.64401,15.26534c-.46701,0-.84399.3766-.84399.8439,0,.4672.37698.8438.84399.8438s.84399-.3766.84399-.8438c0-.4673-.37698-.8439-.84399-.8439Z"/>
  <path class="b" d="M11.84802,37.27444c-.46701,0-.84399.3766-.84399.8438s.37698.8438.84399.8438c.46698,0,.83701-.3766.83701-.8438s-.37701-.8438-.83701-.8438Z"/>
  <path class="b" d="M11.84802,30.67014c-.46701,0-.84399.3766-.84399.8438,0,.4673.37698.8439.84399.8439.46698,0,.83701-.3766.83701-.8439,0-.4672-.37701-.8438-.83701-.8438Z"/>
  <path class="b" d="M16.255,24.07314c-.46698,0-.84399.3766-.84399.8438s.37701.8438.84399.8438c.46701,0,.83701-.3766.83701-.8438s-.37698-.8438-.83701-.8438Z"/>
  <path class="b" d="M16.255,26.26994c-.46698,0-.84399.3765-.84399.8438,0,.4672.37701.8438.84399.8438.46701,0,.83701-.3766.83701-.8438,0-.4673-.37698-.8438-.83701-.8438Z"/>
  <path class="b" d="M16.255,30.67014c-.46698,0-.84399.3766-.84399.8438,0,.4673.37701.8439.84399.8439.46701,0,.83701-.3766.83701-.8439,0-.4672-.37698-.8438-.83701-.8438Z"/>
  <path class="b" d="M16.255,21.86954c-.46698,0-.84399.3765-.84399.8438,0,.4672.37701.8438.84399.8438.46701,0,.83701-.3766.83701-.8438,0-.4673-.37698-.8438-.83701-.8438Z"/>
  <path class="b" d="M16.255,28.47354c-.46698,0-.84399.3765-.84399.8438,0,.4672.37701.8438.84399.8438.46701,0,.83701-.3766.83701-.8438,0-.4673-.37698-.8438-.83701-.8438Z"/>
  <path class="b" d="M18.45203,39.47804c-.46701,0-.84402.3766-.84402.8438s.37701.8438.84402.8438c.46698,0,.84399-.3766.84399-.8438,0-.4603-.37701-.8438-.84399-.8438Z"/>
  <path class="b" d="M16.255,32.87394c-.46698,0-.84399.3765-.84399.8438,0,.4672.37701.8438.84399.8438.46701,0,.83701-.3766.83701-.8438,0-.4673-.37698-.8438-.83701-.8438Z"/>
  <path class="b" d="M14.05103,37.27444c-.46701,0-.84402.3766-.84402.8438s.37701.8438.84402.8438c.46799,0,.84399-.3766.84399-.8438s-.37601-.8438-.84399-.8438Z"/>
  <path class="b" d="M16.255,17.46914c-.46698,0-.84399.3766-.84399.8368,0,.4603.37701.8438.84399.8438.46701,0,.83701-.3765.83701-.8438,0-.4672-.37698-.8368-.83701-.8368Z"/>
  <path class="b" d="M16.255,19.66564c-.46698,0-.84399.3766-.84399.8438,0,.4673.37701.8438.84399.8438.46701,0,.83701-.3765.83701-.8438,0-.4672-.37698-.8438-.83701-.8438Z"/>
  <path class="b" d="M18.45203,37.27444c-.46701,0-.84402.3766-.84402.8438s.37701.8438.84402.8438c.46698,0,.83698-.3766.83698-.8438s-.37698-.8438-.83698-.8438Z"/>
  <path class="b" d="M14.05103,17.46914c-.46701,0-.84402.3766-.84402.8368,0,.4603.37701.8438.84402.8438.46799,0,.84399-.3765.84399-.8438,0-.4602-.37601-.8368-.84399-.8368Z"/>
  <path class="b" d="M14.05103,21.35324c.461,0,.83698-.3765.83698-.8438,0-.4672-.37598-.8438-.83698-.8438-.46002,0-.84402.3766-.84402.8438,0,.4673.37701.8438.84402.8438Z"/>
  <path class="b" d="M14.05103,21.86954c-.46701,0-.84402.3765-.84402.8438,0,.4672.37701.8438.84402.8438.46799,0,.84399-.3766.84399-.8438,0-.4673-.37601-.8438-.84399-.8438Z"/>
  <path class="b" d="M14.05103,35.07754c-.46701,0-.84402.3766-.84402.8438s.37701.8438.84402.8438c.46799,0,.84399-.3766.84399-.8438s-.37601-.8438-.84399-.8438Z"/>
  <path class="b" d="M16.255,35.07754c-.46698,0-.84399.3766-.84399.8438s.37701.8438.84399.8438c.46701,0,.83701-.3766.83701-.8438s-.37698-.8438-.83701-.8438Z"/>
  <path class="b" d="M16.255,37.27444c-.46698,0-.84399.3766-.84399.8438s.37701.8438.84399.8438c.46701,0,.83701-.3766.83701-.8438s-.37698-.8438-.83701-.8438Z"/>
  <path class="b" d="M16.24802,39.47804c-.46701,0-.84399.3766-.84399.8438s.37698.8438.84399.8438.84399-.3766.84399-.8438c0-.4603-.37698-.8438-.84399-.8438Z"/>
  <path class="b" d="M14.05103,8.66134c-.46701,0-.84402.3766-.84402.8439,0,.4672.37701.8438.84402.8438.46799,0,.84399-.3766.84399-.8438,0-.4673-.37601-.8439-.84399-.8439Z"/>
  <path class="b" d="M14.05103,10.86484c-.46701,0-.84402.3766-.84402.8438,0,.4673.37701.8439.84402.8439.46799,0,.83698-.3766.84399-.8369,0-.4672-.37601-.8508-.84399-.8508Z"/>
  <path class="b" d="M14.43503,3.99604c0-.3975.32098-.71833.71799-.71833.39801,0,.71899.32083.71899.71833s-.32098.7182-.71899.7182c-.397,0-.71799-.3207-.71799-.7182Z"/>
  <path class="b" d="M17.62201,3.99604c0-.3975.32101-.71833.71802-.71833.39798,0,.71899.32083.71899.71833s-.32101.7182-.71899.7182c-.397,0-.71802-.3207-.71802-.7182Z"/>
  <path class="b" d="M17.62201,7.30854c0-.3975.32101-.7183.71802-.7183.39798,0,.71899.3208.71899.7183s-.32101.7182-.71899.7182c-.397,0-.71802-.3207-.71802-.7182Z"/>
  <path class="b" d="M17.62201.71829c0-.3975.32101-.71829.71802-.71829.39798,0,.71899.32079.71899.71829s-.32101.71829-.71899.71829c-.397,0-.71802-.32079-.71802-.71829Z"/>
  <path class="b" d="M48.46002,32.55994c0-.3975.32098-.7183.71799-.7183.39801,0,.71802.3208.71802.7183s-.32001.7183-.71802.7183c-.397,0-.71799-.3208-.71799-.7183Z"/>
  <path class="b" d="M48.46002,29.28224c0-.3975.32098-.7183.71799-.7183.39801,0,.71802.3208.71802.7183s-.32001.7253-.71802.7253c-.397,0-.71799-.3208-.71799-.7253Z"/>
  <path class="b" d="M48.46002,22.65054c0-.3975.32098-.7252.71799-.7252.39801,0,.71802.3207.71802.7252s-.32001.7183-.71802.7183c-.397,0-.71799-.3208-.71799-.7183Z"/>
  <path class="b" d="M48.46002,25.96304c0-.3975.32098-.7183.71799-.7183.39801,0,.71802.3208.71802.7183s-.32001.7183-.71802.7183c-.397,0-.71799-.3208-.71799-.7183Z"/>
  <path class="b" d="M48.46002,19.37284c0-.3975.32098-.7183.71799-.7183.39801,0,.71802.3208.71802.7183s-.32001.7183-.71802.7183c-.397,0-.71799-.3278-.71799-.7183Z"/>
  <path class="b" d="M48.46002,12.74074c0-.3975.32098-.7183.71799-.7183.39801,0,.71802.3208.71802.7183s-.32001.7183-.71802.7183c-.397,0-.71799-.3208-.71799-.7183Z"/>
  <path class="b" d="M48.46002,16.05334c0-.3975.32098-.7183.71799-.7183.39801,0,.71802.3208.71802.7183s-.32001.7183-.71802.7183c-.397,0-.71799-.3208-.71799-.7183Z"/>
  <path class="b" d="M48.46002,9.46324c0-.3975.32098-.7182.71799-.7182.39801,0,.71802.3207.71802.7182s-.32001.7183-.71802.7183c-.397,0-.71799-.3208-.71799-.7183Z"/>
  <path class="b" d="M45.147,19.37284c0-.3975.32101-.7183.71902-.7183.39697,0,.71799.3208.71799.7183s-.32101.7183-.71799.7183c-.39801,0-.71902-.3278-.71902-.7183Z"/>
  <path class="b" d="M45.147,12.74074c0-.3975.32101-.7183.71902-.7183.39697,0,.71799.3208.71799.7183s-.32101.7183-.71799.7183c-.39801,0-.71902-.3208-.71902-.7183Z"/>
  <path class="b" d="M45.147,16.05334c0-.3975.32101-.7183.71902-.7183.39697,0,.71799.3208.71799.7183s-.32101.7183-.71799.7183c-.39801,0-.71902-.3208-.71902-.7183Z"/>
  <path class="b" d="M45.147,9.46324c0-.3975.32101-.7182.71902-.7182.39697,0,.71799.3207.71799.7182s-.32101.7183-.71799.7183c-.39801,0-.71902-.3208-.71902-.7183Z"/>
  <path class="b" d="M51.772,12.74074c0-.3975.32101-.7183.71902-.7183.39697,0,.71799.3208.71799.7183s-.32101.7183-.71799.7183c-.39801,0-.71902-.3208-.71902-.7183Z"/>
  <path class="b" d="M51.772,16.05334c0-.3975.32101-.7183.71902-.7183.39697,0,.71799.3208.71799.7183s-.32101.7183-.71799.7183c-.39801,0-.71902-.3208-.71902-.7183Z"/>
  <path class="b" d="M51.772,9.46324c0-.3975.32101-.7182.71902-.7182.39697,0,.71799.3207.71799.7182s-.32101.7183-.71799.7183c-.39801,0-.71902-.3208-.71902-.7183Z"/>
  <path class="b" d="M13.43802,16.65314s.52301-.5648,1.15799-.0418c0,0-.44.3835-1.15799.0418ZM15.70401,13.48714v.7043h-.25101c-.06198-.1743-.11798-.3696-.15298-.4393.01401-.0977.16699-.2092.40399-.2581M16.22702,13.48014c.245.0488.405.1674.42599.265-.02802.0767-.09799.272-.15399.4393h-.272v-.7043ZM20.87201,18.11064c-.06299-.1464-1.004-1.0042-1.004-1.0042.27899-.788.146-1.1088.146-1.1088-.60001.8299-.983.2162-.983.2162.53702-.8508.021-1.067.021-1.067,0,0,.04202.7601-.57898.4951-.69702-.3068-.67599-.7601-1.604-.9344l.29999-.8927v-.0418c0-.4254-.453-.7671-1.05298-.8159.05698-.0344.10199-.0867.12598-.1489.02502-.0621.02802-.1307.01001-.195-.01801-.0644-.05701-.1209-.11099-.1608-.05301-.04-.11902-.0611-.185-.0602-.168,0-.30701.1325-.30701.3068,0,.1116.06201.2093.15298.2581-.59299.0558-1.039.3905-1.039.8159v.0488l.30002.8996h.035c-.802.1813-.90701.5788-.90701.5788-.53699,0-1.19199.4254-.77399,1.3599-.22302-.1046-.474-.2859-.746-.5718,0,0-.02802,1.2622,1.34601,1.2622.495,0,1.08798-.279,1.388-.279,0,0,.04099.1046-.168.1465-.216.0418-.72501.0837-.89902.2789,0,0,.509.6207,1.61801.1256,0,0,1.04599,0,1.54099.8298.272.4603-.32098,1.0252-.32098,1.0252,0,0,.55798,0,.83698-.2581.272-.251-.077.4464-.79498.7671-.237.1046.983.3418,1.40799.0837,0,0,.021.3417-.27899.5161-.29199.1673-.892-.0209-.892-.0209,0,0-.41199.0209-.69101.1325,0,0-.70398.3207-.767.3347-.06198.0279-.711.4114-.53699-.4882l.021-.516c0-.2092-.146-.3417-.146-.3417,0,0-.96301-.6416-1.08801-1.1088l-.37.2092c-1.34601-.8299-1.92401-2.4966-1.64499-4.3307,0,0-.06302-.1743-.21002-.0418-.146.1255-2.04999,1.5133-.216,4.3097,0,0-1.49197-1.1088-1.65298-3.703,0,0-.85699,1.2273,1.353,4.0935,0,0-1.49899-.795-1.952-2.7755,0-.0139-1.56201,1.9945,1.332,4.4004,0,0-1.444-.7322-2.155-1.7922,0,0,.293,1.4854,2.664,2.5384,0,0-1.228-.0349-2.741-1.0391,0,0-.18802,1.4087,2.211,2.392,0,0-.802.0697-2.155-.7462,0,0-.07001.7113,2.35699,1.1158,0,0-.802.3138-2.39899-.3487,0,0,.21597,1.7364,3.20099,1.7016,0,0-.948.4184-2.94299.1464,0,0,.96899.802,3.01999.1116,0,0-.677.802-2.88699.4184,0,0,1.22699,2.0991,4.00198.8229,0,0-.82199,1.0949-2.866,1.2065,0,0,1.59.53,3.362-1.0042,0,0-1.444,1.3738-2.46899,1.7713,0,0,1.99399,1.1716,4.46301-1.6109,0,0-.621,1.039-1.08102,1.5132.64203-.0139,1.52701-1.7085,1.64603-1.9317-.00702.0279-.328,1.3738-.474,1.6946,0,0,.767.3836,2.08499-2.0642,0,0-.035.3836-.168.7323-.125.3486.168.0558.168.0558,0,0,.314-.0558.55099-1.4436l.069.7322-.146.3487.405-.1464c.40399-.1256.034.2719.034.2719,0,0-.767.0698-1.93799,1.6598,0,0-.02103.3487-1.07401.6206,0,0-.27899.021.01401.2371l.418.3836.021.7462-1.13702,1.2064c-.53.5649-.56497-.2162-.56497-.2162l-.05502-.7461c-.168-1.1507-1.90399-1.6807-2.065-.4185,0,0,.405-.2231.55103-.0348.14697.1883.021.2231.021.2231,0,0,.293.2371.41898.3836.13202.1464.07602.788.07602.788,0,0-.02002.1953.18201.4115,0,0-.823-.5998-1.353-.6904-1.84802-.3208-1.93903,1.7922-1.207,1.7155,0,0-.18802-.1395-.03403-.4742.069-.1604.341.0906.341.0906l1.28302.0558c.509.0209.43298.1046.23798.272-.39798.3487-1.047.6695-.50998,1.6667,0,0-.13202.537.57898.5928.71902.0558.62802-.2999.62802-.2999,0,0-.746.2301-.642-.272.056-.258.36298-.2371.36298-.2371,0,0,.43903-.9275,1.06003-1.2204.62097-.2929,1.08099.2162,1.08099.2162,0,0-.021.5509.57898.6555,0,0,.13202.4185-.32797.4952,0,0,.51599.2929.75299-.4045,0,0,.51599-.3487.474-.7322-.035-.3836-.565-.8787-.89902-.9345l1.57602-1.6458s0,.7462.655,1.0042c0,0,.202-.4045.07001-.9135l.69699.3626s-.202-1.0042-.035-1.4436c.168-.4393.53-.9833.53-.9833,0,0,.293,1.1507-.11099,2.3014,0,0,.146.1673.767-.286,0,0-.802,2.4408-2.46899,1.06,0,0-.181,2.4129,2.25299.8369,0,0,0,.537-1.42999.9275-.858.2371-1.297,1.7225-1.297,1.7225,0,0,.858-.6625,1.276-.8229.41898-.1674,1.5-.53,1.702-.7532,0,0-.272.7741-2.02902,1.3878-2.17599.7671-2.24597,3.2149-.47498,2.9778,0,0-.51602-.6765-.258-1.1507,0,0,.293-.3278,1.172-.8926,0,0,.93399-.4952,1.116-.5649,0,0-1.005,1.06-1.228,1.6458-.216.5858-.53,1.7713.621,1.9875,0,0-.25803-1.1158.48798-1.9178,0,0,1.04602-1.1506,1.37402-1.4296,0,0-.20203,1.7156-1.52002,2.8104,0,0,.42502.2232.99002.4394,0,0-.43903,1.3947.85098,2.0851v-22.1066l-.36301-.4603.035.007Z"/>
  <path class="b" d="M34.57501,32.58114v-1.9456h-.97598v1.9456h-1.93903v.9763h1.93903v1.9387h.97598v-1.9387h1.94601v-.9763h-1.94601Z"/>
  <path class="b" d="M21.26901,38.41804h19.44299V6.33214h-19.44299v32.0859ZM39.74301,17.02974h-1.94598v-1.9456h-.96902v1.9456h-1.94598v.9694h1.94598v1.9456h.96902v-1.9456h1.94598v1.9456h-4.86099v9.7144l3.76599,3.5496-4.46298,4.5678-4.68002-4.5678,3.43802-3.5496v-15.5513h6.80698v2.915l-.00699.0069Z"/>
</svg>