<svg id="Layer_1" data-name="Layer 1" xmlns="http://www.w3.org/2000/svg" viewBox="0 0 76.31 80">
    <defs>
        <style>
            .cls-1{fill:#231f20;stroke-width:0}
        </style>
    </defs>
    <g id="g2077">
        <g id="g1875">
            <path id="path839" class="cls-1" d="M7.52 72.05c-.67 0-1.21.54-1.21 1.21s.54 1.21 1.21 1.21 1.21-.54 1.21-1.21-.54-1.21-1.21-1.21"/>
            <path id="path841" class="cls-1" d="M7.52 68.89c-.67 0-1.21.54-1.21 1.21s.54 1.21 1.21 1.21 1.21-.54 1.21-1.21-.54-1.21-1.21-1.21"/>
            <path id="path843" class="cls-1" d="M4.37 27.86c-.67 0-1.21.54-1.21 1.21s.54 1.21 1.21 1.21 1.21-.54 1.21-1.21-.54-1.21-1.21-1.21"/>
            <path id="path845" class="cls-1" d="M7.52 65.74c-.67 0-1.21.54-1.21 1.21s.54 1.21 1.21 1.21 1.21-.54 1.21-1.21-.54-1.21-1.21-1.21"/>
            <path id="path847" class="cls-1" d="M4.37 31.02c-.67 0-1.21.54-1.21 1.21s.54 1.21 1.21 1.21 1.21-.54 1.21-1.21-.54-1.21-1.21-1.21"/>
            <path id="path849" class="cls-1" d="M7.52 46.8c-.67 0-1.21.54-1.21 1.21s.54 1.21 1.21 1.21 1.21-.54 1.21-1.21-.54-1.21-1.21-1.21"/>
            <path id="path851" class="cls-1" d="M7.52 62.58c-.67 0-1.21.54-1.21 1.21S6.85 65 7.52 65s1.21-.54 1.21-1.21-.54-1.21-1.21-1.21"/>
            <path id="path853" class="cls-1" d="M7.52 49.96c-.67 0-1.21.54-1.21 1.21s.54 1.21 1.21 1.21 1.21-.54 1.21-1.21-.54-1.21-1.21-1.21"/>
            <path id="path855" class="cls-1" d="M7.52 59.42c-.67 0-1.21.54-1.21 1.21s.54 1.21 1.21 1.21 1.21-.54 1.21-1.21-.54-1.21-1.21-1.21"/>
            <path id="path857" class="cls-1" d="M7.52 56.27c-.67 0-1.21.54-1.21 1.21s.54 1.21 1.21 1.21 1.21-.54 1.21-1.21-.54-1.21-1.21-1.21"/>
            <path id="path859" class="cls-1" d="M7.52 53.11c-.67 0-1.21.54-1.21 1.21s.54 1.21 1.21 1.21 1.21-.54 1.21-1.21-.54-1.21-1.21-1.21"/>
            <path id="path861" class="cls-1" d="M4.37 56.27c-.67 0-1.21.54-1.21 1.21s.54 1.21 1.21 1.21 1.21-.54 1.21-1.21-.54-1.21-1.21-1.21"/>
            <path id="path863" class="cls-1" d="M4.37 49.96c-.67 0-1.21.54-1.21 1.21s.54 1.21 1.21 1.21 1.21-.54 1.21-1.21-.54-1.21-1.21-1.21"/>
            <path id="path865" class="cls-1" d="M4.37 34.17c-.67 0-1.21.54-1.21 1.21s.54 1.21 1.21 1.21 1.21-.54 1.21-1.21-.54-1.21-1.21-1.21"/>
            <path id="path867" class="cls-1" d="M4.37 62.58c-.67 0-1.21.54-1.21 1.21S3.7 65 4.37 65s1.21-.54 1.21-1.21-.54-1.21-1.21-1.21"/>
            <path id="path869" class="cls-1" d="M4.37 59.42c-.67 0-1.21.54-1.21 1.21 0 .67.54 1.21 1.21 1.21s1.21-.54 1.21-1.21-.54-1.21-1.21-1.21"/>
            <path id="path871" class="cls-1" d="M4.37 53.11c-.67 0-1.21.54-1.21 1.21s.54 1.21 1.21 1.21 1.21-.54 1.21-1.21-.54-1.21-1.21-1.21"/>
            <path id="path873" class="cls-1" d="M4.37 37.33c-.67 0-1.21.54-1.21 1.21s.54 1.21 1.21 1.21 1.21-.54 1.21-1.21-.54-1.21-1.21-1.21"/>
            <path id="path875" class="cls-1" d="M4.37 40.49c-.67 0-1.21.54-1.21 1.2s.54 1.21 1.21 1.21 1.21-.54 1.21-1.21-.54-1.2-1.21-1.2"/>
            <path id="path877" class="cls-1" d="M4.37 46.8c-.67 0-1.21.54-1.21 1.21s.54 1.21 1.21 1.21 1.21-.54 1.21-1.21-.54-1.21-1.21-1.21"/>
            <path id="path879" class="cls-1" d="M4.37 43.64c-.67 0-1.21.54-1.21 1.21s.54 1.21 1.21 1.21 1.21-.54 1.21-1.21-.54-1.21-1.21-1.21"/>
            <path id="path881" class="cls-1" d="M10.68 72.05c-.67 0-1.21.54-1.21 1.21s.54 1.21 1.21 1.21 1.21-.54 1.21-1.21-.54-1.21-1.21-1.21"/>
            <path id="path883" class="cls-1" d="M10.68 43.64c-.67 0-1.21.54-1.21 1.21s.54 1.21 1.21 1.21 1.21-.54 1.21-1.21-.54-1.21-1.21-1.21"/>
            <path id="path885" class="cls-1" d="M10.68 46.8c-.67 0-1.21.54-1.21 1.21s.54 1.21 1.21 1.21 1.21-.54 1.21-1.21-.54-1.21-1.21-1.21"/>
            <path id="path887" class="cls-1" d="M10.68 40.49c-.67 0-1.21.54-1.21 1.2s.54 1.21 1.21 1.21 1.21-.54 1.21-1.21-.54-1.2-1.21-1.2"/>
            <path id="path889" class="cls-1" d="M10.68 49.96c-.67 0-1.21.54-1.21 1.21s.54 1.21 1.21 1.21 1.21-.54 1.21-1.21-.54-1.21-1.21-1.21"/>
            <path id="path891" class="cls-1" d="M10.68 53.11c-.67 0-1.21.54-1.21 1.21s.54 1.21 1.21 1.21 1.21-.54 1.21-1.21-.54-1.21-1.21-1.21"/>
            <path id="path893" class="cls-1" d="M13.83 65.74c-.67 0-1.21.54-1.21 1.21s.54 1.21 1.21 1.21 1.21-.54 1.21-1.21-.54-1.21-1.21-1.21"/>
            <path id="path895" class="cls-1" d="M13.83 72.05c-.67 0-1.21.54-1.21 1.21s.54 1.21 1.21 1.21 1.21-.54 1.21-1.21-.54-1.21-1.21-1.21"/>
            <path id="path897" class="cls-1" d="M10.68 56.27c-.67 0-1.21.54-1.21 1.21s.54 1.21 1.21 1.21 1.21-.54 1.21-1.21-.54-1.21-1.21-1.21"/>
            <path id="path899" class="cls-1" d="M13.83 62.58c-.67 0-1.21.54-1.21 1.21S13.16 65 13.83 65s1.21-.54 1.21-1.21-.54-1.21-1.21-1.21"/>
            <path id="path901" class="cls-1" d="M13.83 68.89c-.67 0-1.21.54-1.21 1.21s.54 1.21 1.21 1.21 1.21-.54 1.21-1.21-.54-1.21-1.21-1.21"/>
            <path id="path903" class="cls-1" d="M7.52 43.64c-.67 0-1.21.54-1.21 1.21s.54 1.21 1.21 1.21 1.21-.54 1.21-1.21-.54-1.21-1.21-1.21"/>
            <path id="path905" class="cls-1" d="M7.52 31.02c-.67 0-1.21.54-1.21 1.21s.54 1.21 1.21 1.21 1.21-.54 1.21-1.21-.54-1.21-1.21-1.21"/>
            <path id="path907" class="cls-1" d="M10.68 59.42c-.67 0-1.21.54-1.21 1.21s.54 1.21 1.21 1.21 1.21-.54 1.21-1.21-.54-1.21-1.21-1.21"/>
            <path id="path909" class="cls-1" d="M7.52 34.17c-.67 0-1.21.54-1.21 1.21s.54 1.21 1.21 1.21 1.21-.54 1.21-1.21-.54-1.21-1.21-1.21"/>
            <path id="path911" class="cls-1" d="M7.52 37.33c-.67 0-1.21.54-1.21 1.21s.54 1.21 1.21 1.21 1.21-.54 1.21-1.21-.54-1.21-1.21-1.21"/>
            <path id="path913" class="cls-1" d="M7.52 40.49c-.67 0-1.21.54-1.21 1.2s.54 1.21 1.21 1.21 1.21-.54 1.21-1.21-.54-1.2-1.21-1.2"/>
            <path id="path915" class="cls-1" d="M7.52 27.86c-.67 0-1.21.54-1.21 1.21s.54 1.21 1.21 1.21 1.21-.54 1.21-1.21-.54-1.21-1.21-1.21"/>
            <path id="path917" class="cls-1" d="M4.37 65.74c-.67 0-1.21.54-1.21 1.21s.54 1.21 1.21 1.21 1.21-.54 1.21-1.21-.54-1.21-1.21-1.21"/>
            <path id="path919" class="cls-1" d="M10.68 65.74c-.67 0-1.21.54-1.21 1.21s.54 1.21 1.21 1.21 1.21-.54 1.21-1.21-.54-1.21-1.21-1.21"/>
            <path id="path921" class="cls-1" d="M10.68 62.58c-.67 0-1.21.54-1.21 1.21S10.01 65 10.68 65s1.21-.54 1.21-1.21-.54-1.21-1.21-1.21"/>
            <path id="path923" class="cls-1" d="M10.68 68.89c-.67 0-1.21.54-1.21 1.21s.54 1.21 1.21 1.21 1.21-.54 1.21-1.21-.54-1.21-1.21-1.21"/>
            <path id="path925" class="cls-1" d="M20.15 56.27c-.67 0-1.21.54-1.21 1.21s.54 1.21 1.21 1.21 1.2-.54 1.2-1.21-.54-1.21-1.2-1.21"/>
            <path id="path927" class="cls-1" d="M20.15 36.59c.66 0 1.2-.54 1.2-1.21s-.54-1.21-1.2-1.21-1.21.54-1.21 1.21.54 1.21 1.21 1.21"/>
            <path id="path929" class="cls-1" d="M20.15 53.11c-.67 0-1.21.54-1.21 1.21s.54 1.21 1.21 1.21 1.2-.54 1.2-1.21-.54-1.21-1.2-1.21"/>
            <path id="path931" class="cls-1" d="M23.3 39.75c.66 0 1.21-.54 1.21-1.21s-.54-1.21-1.21-1.21-1.21.54-1.21 1.21.54 1.21 1.21 1.21"/>
            <path id="path933" class="cls-1" d="M20.15 39.75c.66 0 1.2-.54 1.2-1.21s-.54-1.21-1.2-1.21-1.21.54-1.21 1.21.54 1.21 1.21 1.21"/>
            <path id="path935" class="cls-1" d="M13.83 59.42c-.67 0-1.21.54-1.21 1.21s.54 1.21 1.21 1.21 1.21-.54 1.21-1.21-.54-1.21-1.21-1.21"/>
            <path id="path937" class="cls-1" d="M20.15 61.84c.66 0 1.2-.54 1.2-1.21s-.54-1.21-1.2-1.21-1.21.54-1.21 1.21.54 1.21 1.21 1.21"/>
            <path id="path939" class="cls-1" d="M16.99 30.28c.66 0 1.2-.54 1.2-1.21s-.54-1.21-1.2-1.21-1.21.54-1.21 1.21.54 1.21 1.21 1.21"/>
            <path id="path941" class="cls-1" d="M20.15 49.96c-.67 0-1.21.54-1.21 1.21s.54 1.21 1.21 1.21 1.2-.54 1.2-1.21-.54-1.21-1.2-1.21"/>
            <path id="path943" class="cls-1" d="M16.99 33.43c.66 0 1.2-.54 1.2-1.21s-.54-1.21-1.2-1.21-1.21.54-1.21 1.21.54 1.21 1.21 1.21"/>
            <path id="path945" class="cls-1" d="M23.3 36.59c.66 0 1.21-.54 1.21-1.2s-.54-1.21-1.21-1.21-1.21.54-1.21 1.21.54 1.2 1.21 1.2"/>
            <path id="path947" class="cls-1" d="M23.3 33.43c.66 0 1.21-.54 1.21-1.21s-.54-1.21-1.21-1.21-1.21.54-1.21 1.21.54 1.21 1.21 1.21"/>
            <path id="path949" class="cls-1" d="M61.18 42.9c.67 0 1.21-.54 1.21-1.21s-.54-1.2-1.21-1.2a1.206 1.206 0 1 0 0 2.41"/>
            <path id="path951" class="cls-1" d="M61.18 36.59c.67 0 1.21-.54 1.21-1.21s-.54-1.21-1.21-1.21-1.21.54-1.21 1.21c0 .67.54 1.21 1.21 1.21"/>
            <path id="path953" class="cls-1" d="M61.18 39.75c.67 0 1.21-.54 1.21-1.21s-.54-1.21-1.21-1.21-1.21.54-1.21 1.21c0 .67.54 1.21 1.21 1.21"/>
            <path id="path955" class="cls-1" d="M61.18 33.43c.66 0 1.2-.54 1.21-1.2 0-.67-.54-1.22-1.21-1.22s-1.21.54-1.21 1.21c0 .66.54 1.21 1.21 1.21"/>
            <path id="path957" class="cls-1" d="M16.99 36.59c.67 0 1.21-.54 1.21-1.21s-.54-1.21-1.21-1.21-1.21.54-1.21 1.21c0 .67.54 1.21 1.21 1.21"/>
            <path id="path959" class="cls-1" d="M4.37 68.89c-.67 0-1.21.54-1.21 1.21s.54 1.21 1.21 1.21 1.21-.54 1.21-1.21-.54-1.21-1.21-1.21"/>
            <path id="path961" class="cls-1" d="M29.62 30.28c.66 0 1.2-.54 1.2-1.21s-.54-1.21-1.2-1.21-1.21.54-1.21 1.21.54 1.21 1.21 1.21"/>
            <path id="path963" class="cls-1" d="M23.3 30.28c.66 0 1.21-.54 1.21-1.21s-.54-1.21-1.21-1.21-1.21.54-1.21 1.21.54 1.21 1.21 1.21"/>
            <path id="path965" class="cls-1" d="M29.62 36.59c.66 0 1.2-.54 1.2-1.21s-.54-1.21-1.2-1.21-1.21.54-1.21 1.21.54 1.21 1.21 1.21"/>
            <path id="path967" class="cls-1" d="M29.62 33.43c.65 0 1.19-.54 1.2-1.19 0-.67-.54-1.22-1.2-1.22s-1.21.54-1.21 1.21.54 1.21 1.21 1.21"/>
            <path id="path969" class="cls-1" d="M61.18 30.28c.67 0 1.21-.54 1.21-1.21s-.54-1.21-1.21-1.21-1.21.54-1.21 1.21c0 .66.54 1.21 1.21 1.21"/>
            <path id="path971" class="cls-1" d="M1.21 49.96c-.66 0-1.21.54-1.21 1.2s.54 1.21 1.21 1.21 1.21-.54 1.21-1.21-.54-1.21-1.21-1.21"/>
            <path id="path973" class="cls-1" d="M1.21 53.11c-.66 0-1.21.54-1.21 1.21s.54 1.21 1.21 1.21 1.21-.54 1.21-1.21-.54-1.21-1.21-1.21"/>
            <path id="path975" class="cls-1" d="M1.21 56.27c-.66 0-1.21.54-1.21 1.21s.54 1.21 1.21 1.21 1.21-.54 1.21-1.21-.54-1.21-1.21-1.21"/>
            <path id="path977" class="cls-1" d="M1.21 65.74c-.67 0-1.21.54-1.21 1.21s.54 1.21 1.21 1.21 1.21-.54 1.21-1.21-.54-1.21-1.21-1.21"/>
            <path id="path979" class="cls-1" d="M1.21 59.42c-.66 0-1.21.54-1.21 1.21s.54 1.21 1.21 1.21 1.21-.54 1.21-1.21-.54-1.21-1.21-1.21"/>
            <path id="path981" class="cls-1" d="M1.21 62.58c-.66 0-1.21.54-1.21 1.21S.54 65 1.21 65s1.21-.54 1.21-1.21-.54-1.21-1.21-1.21"/>
            <path id="path983" class="cls-1" d="M4.37 72.05c-.67 0-1.21.54-1.21 1.21s.54 1.21 1.21 1.21 1.21-.54 1.21-1.21-.54-1.21-1.21-1.21"/>
            <path id="path985" class="cls-1" d="M1.21 40.49c-.66 0-1.21.54-1.21 1.2s.54 1.21 1.21 1.21 1.21-.54 1.21-1.21-.54-1.2-1.21-1.2"/>
            <path id="path987" class="cls-1" d="M1.21 46.8c-.66 0-1.21.54-1.21 1.21s.54 1.21 1.21 1.21 1.21-.54 1.21-1.21-.54-1.21-1.21-1.21"/>
            <path id="path989" class="cls-1" d="M1.21 43.64c-.66 0-1.21.54-1.21 1.21s.54 1.21 1.21 1.21 1.21-.54 1.21-1.21-.54-1.21-1.21-1.21"/>
            <path id="path991" class="cls-1" d="M10.68 30.28c.66 0 1.21-.54 1.21-1.21s-.54-1.21-1.21-1.21-1.21.54-1.21 1.21c0 .66.54 1.21 1.21 1.21"/>
            <path id="path993" class="cls-1" d="M10.68 36.59c.66 0 1.21-.54 1.21-1.21s-.54-1.21-1.21-1.21-1.21.54-1.21 1.21c0 .67.54 1.21 1.21 1.21"/>
            <path id="path995" class="cls-1" d="M10.68 39.75c.66 0 1.21-.54 1.21-1.21s-.54-1.21-1.21-1.21-1.21.54-1.21 1.21c0 .67.54 1.21 1.21 1.21"/>
            <path id="path997" class="cls-1" d="M1.21 30.28c.66 0 1.2-.54 1.2-1.21s-.54-1.21-1.2-1.21S0 28.4 0 29.07s.54 1.21 1.21 1.21"/>
            <path id="path999" class="cls-1" d="M15.78 38.54c0 .67.54 1.21 1.21 1.21s1.2-.54 1.2-1.21-.54-1.21-1.2-1.21-1.21.54-1.21 1.21"/>
            <path id="path1001" class="cls-1" d="M10.68 33.43c.66 0 1.21-.54 1.21-1.21s-.54-1.21-1.21-1.21-1.21.54-1.21 1.21c0 .66.54 1.21 1.21 1.21"/>
            <path id="path1003" class="cls-1" d="M1.21 33.43c.66 0 1.2-.54 1.2-1.21s-.54-1.21-1.2-1.21S0 31.56 0 32.23s.54 1.21 1.21 1.21"/>
            <path id="path1005" class="cls-1" d="M1.21 39.75c.66 0 1.2-.54 1.2-1.21s-.54-1.21-1.2-1.21S0 37.87 0 38.54c0 .67.54 1.21 1.21 1.21"/>
            <path id="path1007" class="cls-1" d="M1.21 68.89c-.67 0-1.21.54-1.21 1.21s.54 1.21 1.21 1.21 1.21-.54 1.21-1.21-.54-1.21-1.21-1.21"/>
            <path id="path1009" class="cls-1" d="M1.21 72.05c-.67 0-1.21.54-1.21 1.21s.54 1.21 1.21 1.21 1.2-.54 1.2-1.21-.54-1.21-1.2-1.21"/>
            <path id="path1011" class="cls-1" d="M1.21 36.59c.66 0 1.2-.54 1.2-1.21s-.54-1.21-1.2-1.21S0 34.71 0 35.38c0 .67.54 1.21 1.21 1.21"/>
            <path id="path1013" class="cls-1" d="M13.83 31.02c-.67 0-1.21.54-1.21 1.21s.54 1.21 1.21 1.21 1.2-.54 1.21-1.2c0-.67-.54-1.22-1.21-1.22"/>
            <path id="path1015" class="cls-1" d="M29.62 59.42c-.67 0-1.21.54-1.21 1.21s.54 1.21 1.21 1.21 1.21-.54 1.21-1.21-.54-1.21-1.21-1.21"/>
            <path id="path1017" class="cls-1" d="M29.62 62.58c-.67 0-1.21.54-1.21 1.21S28.95 65 29.62 65s1.21-.54 1.21-1.21c0-.67-.54-1.21-1.21-1.21"/>
            <path id="path1019" class="cls-1" d="M29.62 65.74c-.67 0-1.21.54-1.21 1.21s.54 1.21 1.21 1.21 1.21-.54 1.21-1.21c0-.67-.54-1.21-1.21-1.21"/>
            <path id="path1021" class="cls-1" d="M29.62 68.89c-.67 0-1.21.54-1.21 1.21s.54 1.21 1.21 1.21 1.21-.54 1.21-1.21c0-.67-.54-1.21-1.21-1.21"/>
            <path id="path1023" class="cls-1" d="M29.61 72.05c-.67 0-1.21.54-1.21 1.21s.54 1.21 1.21 1.21 1.21-.54 1.21-1.21c0-.66-.54-1.21-1.21-1.21"/>
            <path id="path1025" class="cls-1" d="M29.62 56.27c-.67 0-1.21.54-1.21 1.21s.54 1.21 1.21 1.21 1.21-.54 1.21-1.21c0-.67-.54-1.21-1.21-1.21"/>
            <path id="path1027" class="cls-1" d="M26.46 27.86c-.67 0-1.21.54-1.21 1.21s.54 1.21 1.21 1.21 1.21-.54 1.21-1.21c0-.67-.54-1.21-1.21-1.21"/>
            <path id="path1029" class="cls-1" d="M29.62 46.8c-.67 0-1.21.54-1.21 1.21s.54 1.21 1.21 1.21 1.21-.54 1.21-1.21c0-.67-.54-1.21-1.21-1.21"/>
            <path id="path1031" class="cls-1" d="M29.62 49.96c-.67 0-1.21.54-1.21 1.21s.54 1.21 1.21 1.21 1.21-.54 1.21-1.21c0-.67-.54-1.21-1.21-1.21"/>
            <path id="path1033" class="cls-1" d="M29.62 53.11c-.67 0-1.21.54-1.21 1.21s.54 1.21 1.21 1.21 1.21-.54 1.21-1.21c0-.67-.54-1.21-1.21-1.21"/>
            <path id="path1035" class="cls-1" d="M29.62 43.64c-.67 0-1.21.54-1.21 1.21s.54 1.21 1.21 1.21 1.21-.54 1.21-1.21c0-.66-.54-1.21-1.21-1.21"/>
            <path id="path1037" class="cls-1" d="M26.46 53.11c-.67 0-1.21.54-1.21 1.21s.54 1.21 1.21 1.21 1.2-.54 1.2-1.21-.54-1.21-1.2-1.21"/>
            <path id="path1039" class="cls-1" d="M26.46 49.96c-.67 0-1.21.54-1.21 1.21s.54 1.21 1.21 1.21 1.2-.54 1.2-1.21-.54-1.21-1.2-1.21"/>
            <path id="path1041" class="cls-1" d="M26.46 56.27c-.67 0-1.21.54-1.21 1.21s.54 1.21 1.21 1.21 1.2-.54 1.2-1.21-.54-1.21-1.2-1.21"/>
            <path id="path1043" class="cls-1" d="M26.46 59.42c-.67 0-1.21.54-1.21 1.21s.54 1.21 1.21 1.21 1.2-.54 1.2-1.21-.54-1.21-1.2-1.21"/>
            <path id="path1045" class="cls-1" d="M13.83 56.27c-.67 0-1.21.54-1.21 1.21s.54 1.21 1.21 1.21 1.21-.54 1.21-1.21-.54-1.21-1.21-1.21"/>
            <path id="path1047" class="cls-1" d="M26.46 34.17c-.67 0-1.21.54-1.21 1.21s.54 1.21 1.21 1.21 1.21-.54 1.21-1.21c0-.66-.54-1.21-1.21-1.21"/>
            <path id="path1049" class="cls-1" d="M26.46 43.64c-.67 0-1.21.54-1.21 1.21s.54 1.21 1.21 1.21 1.2-.54 1.2-1.21-.54-1.21-1.2-1.21"/>
            <path id="path1051" class="cls-1" d="M26.46 37.33c-.67 0-1.21.54-1.21 1.21s.54 1.21 1.21 1.21 1.2-.54 1.2-1.21-.54-1.21-1.2-1.21"/>
            <path id="path1053" class="cls-1" d="M26.46 31.02c-.67 0-1.21.54-1.21 1.21s.54 1.21 1.21 1.21 1.21-.54 1.21-1.21c0-.67-.54-1.21-1.21-1.21"/>
            <path id="path1055" class="cls-1" d="M26.46 40.49c-.67 0-1.21.54-1.21 1.2s.54 1.21 1.21 1.21 1.2-.54 1.2-1.21-.54-1.2-1.2-1.2"/>
            <path id="path1057" class="cls-1" d="M51.71 72.05c-.67 0-1.21.54-1.21 1.21s.54 1.21 1.21 1.21 1.21-.54 1.21-1.21-.54-1.21-1.21-1.21"/>
            <path id="path1059" class="cls-1" d="M61.18 59.42c-.67 0-1.21.54-1.21 1.21s.54 1.21 1.21 1.21 1.21-.54 1.21-1.21-.54-1.21-1.21-1.21"/>
            <path id="path1061" class="cls-1" d="M61.18 72.05c-.67 0-1.21.54-1.21 1.21s.54 1.21 1.21 1.21 1.21-.54 1.21-1.21-.54-1.21-1.21-1.21"/>
            <path id="path1063" class="cls-1" d="M61.18 68.89c-.67 0-1.21.54-1.21 1.21s.54 1.21 1.21 1.21 1.21-.54 1.21-1.21-.54-1.21-1.21-1.21"/>
            <path id="path1065" class="cls-1" d="M61.18 65.74c-.67 0-1.21.54-1.21 1.21s.54 1.21 1.21 1.21 1.21-.54 1.21-1.21-.54-1.21-1.21-1.21"/>
            <path id="path1067" class="cls-1" d="M61.18 56.27c-.67 0-1.21.54-1.21 1.21s.54 1.21 1.21 1.21 1.21-.54 1.21-1.21-.54-1.21-1.21-1.21"/>
            <path id="path1069" class="cls-1" d="M61.18 62.58c-.67 0-1.21.54-1.21 1.21S60.51 65 61.18 65s1.21-.54 1.21-1.21-.54-1.21-1.21-1.21"/>
            <path id="path1071" class="cls-1" d="M61.18 53.11c-.67 0-1.21.54-1.21 1.21s.54 1.21 1.21 1.21 1.21-.54 1.21-1.21-.54-1.21-1.21-1.21"/>
            <path id="path1073" class="cls-1" d="M61.18 46.8c-.67 0-1.21.54-1.21 1.21s.54 1.21 1.21 1.21 1.21-.54 1.21-1.21-.54-1.21-1.21-1.21"/>
            <path id="path1075" class="cls-1" d="M61.18 43.64c-.67 0-1.21.54-1.21 1.21s.54 1.21 1.21 1.21 1.21-.54 1.21-1.21-.54-1.21-1.21-1.21"/>
            <path id="path1077" class="cls-1" d="M61.18 49.96c-.67 0-1.21.54-1.21 1.21s.54 1.21 1.21 1.21 1.21-.54 1.21-1.21-.54-1.21-1.21-1.21"/>
            <path id="path1079" class="cls-1" d="M26.46 62.58c-.67 0-1.21.54-1.21 1.21S25.79 65 26.46 65s1.2-.54 1.2-1.21-.54-1.21-1.2-1.21"/>
            <path id="path1081" class="cls-1" d="M35.93 72.05c-.66 0-1.21.54-1.21 1.21s.54 1.21 1.21 1.21 1.21-.54 1.21-1.21c0-.66-.54-1.21-1.21-1.21"/>
            <path id="path1083" class="cls-1" d="M42.24 72.05c-.66 0-1.2.54-1.2 1.21s.54 1.21 1.2 1.21 1.21-.54 1.21-1.21-.54-1.21-1.21-1.21"/>
            <path id="path1085" class="cls-1" d="M39.08 72.05c-.67 0-1.21.54-1.21 1.21s.54 1.21 1.21 1.21 1.2-.54 1.2-1.21c0-.66-.54-1.21-1.2-1.21"/>
            <path id="path1087" class="cls-1" d="M29.62 37.33c-.67 0-1.21.54-1.21 1.21s.54 1.21 1.21 1.21 1.21-.54 1.21-1.21c0-.66-.54-1.21-1.21-1.21"/>
            <path id="path1089" class="cls-1" d="M32.77 72.05c-.67 0-1.21.54-1.21 1.21s.54 1.21 1.21 1.21 1.21-.54 1.21-1.21c0-.66-.54-1.21-1.21-1.21"/>
            <path id="path1091" class="cls-1" d="M58.02 72.05c-.66 0-1.21.54-1.21 1.21s.54 1.21 1.21 1.21 1.21-.54 1.21-1.21-.54-1.21-1.21-1.21"/>
            <path id="path1093" class="cls-1" d="M29.62 40.49c-.67 0-1.21.54-1.21 1.2s.54 1.21 1.21 1.21 1.21-.54 1.21-1.21c0-.66-.54-1.2-1.21-1.2"/>
            <path id="path1095" class="cls-1" d="M45.4 72.05c-.67 0-1.21.54-1.21 1.21s.54 1.21 1.21 1.21 1.21-.54 1.21-1.21c0-.66-.54-1.21-1.21-1.21"/>
            <path id="path1097" class="cls-1" d="M54.86 72.05c-.67 0-1.21.54-1.21 1.21s.54 1.21 1.21 1.21 1.21-.54 1.21-1.21-.54-1.21-1.21-1.21"/>
            <path id="path1099" class="cls-1" d="M48.55 72.05c-.67 0-1.21.54-1.21 1.21s.54 1.21 1.21 1.21 1.2-.54 1.2-1.21-.54-1.21-1.2-1.21"/>
            <path id="path1101" class="cls-1" d="M26.46 46.8c-.67 0-1.21.54-1.21 1.21s.54 1.21 1.21 1.21 1.2-.54 1.2-1.21-.54-1.21-1.2-1.21"/>
            <path id="path1103" class="cls-1" d="M16.99 53.11c-.67 0-1.21.54-1.21 1.21s.54 1.21 1.21 1.21 1.2-.54 1.2-1.21c0-.67-.54-1.21-1.2-1.21"/>
            <path id="path1105" class="cls-1" d="M16.99 49.96c-.67 0-1.21.54-1.21 1.21s.54 1.21 1.21 1.21 1.2-.54 1.2-1.21c0-.67-.54-1.21-1.2-1.21"/>
            <path id="path1107" class="cls-1" d="M16.99 56.27c-.67 0-1.21.54-1.21 1.21s.54 1.21 1.21 1.21 1.2-.54 1.2-1.21c0-.67-.54-1.21-1.2-1.21"/>
            <path id="path1109" class="cls-1" d="M16.99 65.74c-.67 0-1.21.54-1.21 1.21s.54 1.21 1.21 1.21 1.2-.54 1.2-1.21c0-.67-.54-1.21-1.2-1.21"/>
            <path id="path1111" class="cls-1" d="M16.99 62.58c-.67 0-1.21.54-1.21 1.21S16.32 65 16.99 65s1.2-.54 1.2-1.21c0-.67-.54-1.21-1.2-1.21"/>
            <path id="path1113" class="cls-1" d="M26.46 65.74c-.67 0-1.21.54-1.21 1.21s.54 1.21 1.21 1.21 1.2-.54 1.2-1.21-.54-1.21-1.2-1.21"/>
            <path id="path1115" class="cls-1" d="M20.15 65c.66 0 1.2-.54 1.2-1.21s-.54-1.21-1.2-1.21-1.21.54-1.21 1.21.54 1.21 1.21 1.21"/>
            <path id="path1117" class="cls-1" d="M16.99 40.49c-.67 0-1.21.54-1.21 1.2s.54 1.21 1.21 1.21 1.21-.54 1.21-1.21c0-.66-.54-1.2-1.21-1.2"/>
            <path id="path1119" class="cls-1" d="M16.99 46.06c.66 0 1.2-.54 1.2-1.21s-.54-1.21-1.2-1.21-1.21.54-1.21 1.21.54 1.21 1.21 1.21"/>
            <path id="path1121" class="cls-1" d="M16.99 46.8c-.67 0-1.21.54-1.21 1.21s.54 1.21 1.21 1.21 1.21-.54 1.21-1.21c0-.67-.54-1.21-1.21-1.21"/>
            <path id="path1123" class="cls-1" d="M13.83 36.59c.66 0 1.2-.54 1.2-1.21s-.54-1.21-1.2-1.21-1.21.54-1.21 1.21c0 .67.54 1.21 1.21 1.21"/>
            <path id="path1125" class="cls-1" d="M13.83 40.49c-.67 0-1.21.54-1.21 1.2s.54 1.21 1.21 1.21 1.21-.54 1.21-1.21-.54-1.2-1.21-1.2"/>
            <path id="path1127" class="cls-1" d="M13.83 43.64c-.67 0-1.21.54-1.21 1.21s.54 1.21 1.21 1.21 1.21-.54 1.21-1.21-.54-1.21-1.21-1.21"/>
            <path id="path1129" class="cls-1" d="M13.83 46.8c-.67 0-1.21.54-1.21 1.21s.54 1.21 1.21 1.21 1.21-.54 1.21-1.21-.54-1.21-1.21-1.21"/>
            <path id="path1131" class="cls-1" d="M13.83 53.11c-.67 0-1.21.54-1.21 1.21s.54 1.21 1.21 1.21 1.21-.54 1.21-1.21-.54-1.21-1.21-1.21"/>
            <path id="path1133" class="cls-1" d="M13.83 49.96c-.67 0-1.21.54-1.21 1.21s.54 1.21 1.21 1.21 1.21-.54 1.21-1.21-.54-1.21-1.21-1.21"/>
            <path id="path1135" class="cls-1" d="M20.15 72.05c-.67 0-1.21.54-1.21 1.21s.54 1.21 1.21 1.21 1.21-.54 1.21-1.21c0-.66-.54-1.21-1.21-1.21"/>
            <path id="path1137" class="cls-1" d="M13.83 27.86c-.67 0-1.21.54-1.21 1.21s.54 1.21 1.21 1.21 1.21-.54 1.21-1.21-.54-1.21-1.21-1.21"/>
            <path id="path1139" class="cls-1" d="M16.99 72.05c-.67 0-1.21.54-1.21 1.21s.54 1.21 1.21 1.21 1.2-.54 1.2-1.21c0-.66-.54-1.21-1.2-1.21"/>
            <path id="path1141" class="cls-1" d="M13.83 37.33c-.67 0-1.21.54-1.21 1.21s.54 1.21 1.21 1.21 1.21-.54 1.21-1.21-.54-1.21-1.21-1.21"/>
            <path id="path1143" class="cls-1" d="M16.99 68.89c-.67 0-1.21.54-1.21 1.21s.54 1.21 1.21 1.21 1.2-.54 1.2-1.21c0-.67-.54-1.21-1.2-1.21"/>
            <path id="path1145" class="cls-1" d="M16.99 59.42c-.67 0-1.21.54-1.21 1.21s.54 1.21 1.21 1.21 1.2-.54 1.2-1.21-.54-1.21-1.2-1.21"/>
            <path id="path1147" class="cls-1" d="M23.31 49.96c-.67 0-1.21.54-1.21 1.21s.54 1.21 1.21 1.21 1.2-.54 1.2-1.21-.54-1.21-1.2-1.21"/>
            <path id="path1149" class="cls-1" d="M23.31 53.11c-.67 0-1.21.54-1.21 1.21s.54 1.21 1.21 1.21 1.2-.54 1.2-1.21-.54-1.21-1.2-1.21"/>
            <path id="path1151" class="cls-1" d="M23.31 59.42c-.67 0-1.21.54-1.21 1.21s.54 1.21 1.21 1.21 1.2-.54 1.2-1.21-.54-1.21-1.2-1.21"/>
            <path id="path1153" class="cls-1" d="M23.31 46.8c-.67 0-1.21.54-1.21 1.21s.54 1.21 1.21 1.21 1.2-.54 1.2-1.21-.54-1.21-1.2-1.21"/>
            <path id="path1155" class="cls-1" d="M23.31 56.27c-.67 0-1.21.54-1.21 1.21s.54 1.21 1.21 1.21 1.2-.54 1.2-1.21-.54-1.21-1.2-1.21"/>
            <path id="path1157" class="cls-1" d="M26.46 72.05c-.67 0-1.21.54-1.21 1.21s.54 1.21 1.21 1.21 1.21-.54 1.21-1.21c0-.66-.54-1.21-1.21-1.21"/>
            <path id="path1159" class="cls-1" d="M23.31 62.58c-.67 0-1.21.54-1.21 1.21S22.64 65 23.31 65s1.2-.54 1.2-1.21-.54-1.21-1.2-1.21"/>
            <path id="path1161" class="cls-1" d="M20.15 68.89c-.67 0-1.21.54-1.21 1.21s.54 1.21 1.21 1.21 1.21-.54 1.21-1.21c0-.67-.54-1.21-1.21-1.21"/>
            <path id="path1163" class="cls-1" d="M23.31 40.49c-.67 0-1.21.54-1.21 1.2s.54 1.21 1.21 1.21 1.2-.54 1.2-1.21-.54-1.2-1.2-1.2"/>
            <path id="path1165" class="cls-1" d="M23.31 43.64c-.67 0-1.21.54-1.21 1.21s.54 1.21 1.21 1.21 1.2-.54 1.2-1.21-.54-1.21-1.2-1.21"/>
            <path id="path1167" class="cls-1" d="M26.46 68.89c-.67 0-1.21.54-1.21 1.21s.54 1.21 1.21 1.21 1.2-.54 1.2-1.21-.54-1.21-1.2-1.21"/>
            <path id="path1169" class="cls-1" d="M20.15 40.49c-.67 0-1.21.54-1.21 1.2s.54 1.21 1.21 1.21 1.21-.54 1.21-1.21c0-.66-.54-1.2-1.21-1.2"/>
            <path id="path1171" class="cls-1" d="M20.15 46.06c.66 0 1.2-.54 1.2-1.21s-.54-1.21-1.2-1.21-1.21.54-1.21 1.21.54 1.21 1.21 1.21"/>
            <path id="path1173" class="cls-1" d="M20.15 46.8c-.67 0-1.21.54-1.21 1.21s.54 1.21 1.21 1.21 1.21-.54 1.21-1.21c0-.67-.54-1.21-1.21-1.21"/>
            <path id="path1175" class="cls-1" d="M20.15 65.74c-.67 0-1.21.54-1.21 1.21s.54 1.21 1.21 1.21 1.21-.54 1.21-1.21c0-.67-.54-1.21-1.21-1.21"/>
            <path id="path1177" class="cls-1" d="M23.31 65.74c-.67 0-1.21.54-1.21 1.21s.54 1.21 1.21 1.21 1.2-.54 1.2-1.21-.54-1.21-1.2-1.21"/>
            <path id="path1179" class="cls-1" d="M23.31 68.89c-.67 0-1.21.54-1.21 1.21s.54 1.21 1.21 1.21 1.2-.54 1.2-1.21-.54-1.21-1.2-1.21"/>
            <path id="path1181" class="cls-1" d="M23.3 72.05c-.67 0-1.21.54-1.21 1.21s.54 1.21 1.21 1.21 1.21-.54 1.21-1.21c0-.66-.54-1.21-1.21-1.21"/>
            <path id="path1183" class="cls-1" d="M20.15 27.86c-.67 0-1.21.54-1.21 1.21s.54 1.21 1.21 1.21 1.21-.54 1.21-1.21c0-.67-.54-1.21-1.21-1.21"/>
            <path id="path1185" class="cls-1" d="M20.15 31.02c-.67 0-1.21.54-1.21 1.21s.54 1.21 1.21 1.21 1.2-.54 1.21-1.2c0-.67-.54-1.22-1.21-1.22"/>
        </g>
        <g id="g1519">
            <path id="path1187" class="cls-1" d="M20.7 21.17c0-.57.46-1.03 1.03-1.03s1.03.46 1.03 1.03-.46 1.03-1.03 1.03-1.03-.46-1.03-1.03"/>
            <path id="path1189" class="cls-1" d="M25.27 21.17c0-.57.46-1.03 1.03-1.03s1.03.46 1.03 1.03-.46 1.03-1.03 1.03-1.03-.46-1.03-1.03"/>
            <path id="path1191" class="cls-1" d="M25.27 25.92c0-.57.46-1.03 1.03-1.03s1.03.46 1.03 1.03-.46 1.03-1.03 1.03-1.03-.46-1.03-1.03"/>
            <path id="path1193" class="cls-1" d="M25.27 16.47c0-.57.46-1.03 1.03-1.03s1.03.46 1.03 1.03-.46 1.03-1.03 1.03-1.03-.46-1.03-1.03"/>
        </g>
        <g id="g1513">
            <path id="path1195" class="cls-1" d="M69.49 62.13c0-.57.46-1.03 1.03-1.03s1.03.46 1.03 1.03-.46 1.03-1.03 1.03-1.03-.46-1.03-1.03"/>
            <path id="path1197" class="cls-1" d="M69.49 57.43c0-.57.46-1.03 1.03-1.03s1.03.46 1.03 1.03-.46 1.04-1.03 1.04-1.03-.46-1.03-1.04"/>
            <path id="path1199" class="cls-1" d="M69.49 47.92c0-.57.46-1.04 1.03-1.04s1.03.46 1.03 1.04-.46 1.03-1.03 1.03-1.03-.46-1.03-1.03"/>
            <path id="path1201" class="cls-1" d="M69.49 52.67c0-.57.46-1.03 1.03-1.03s1.03.46 1.03 1.03-.46 1.03-1.03 1.03-1.03-.46-1.03-1.03"/>
            <path id="path1203" class="cls-1" d="M69.49 43.22c0-.57.46-1.03 1.03-1.03s1.03.46 1.03 1.03-.46 1.03-1.03 1.03-1.03-.47-1.03-1.03"/>
            <path id="path1205" class="cls-1" d="M69.49 33.71c0-.57.46-1.03 1.03-1.03s1.03.46 1.03 1.03-.46 1.03-1.03 1.03-1.03-.46-1.03-1.03"/>
            <path id="path1207" class="cls-1" d="M69.49 38.46c0-.57.46-1.03 1.03-1.03s1.03.46 1.03 1.03-.46 1.03-1.03 1.03-1.03-.46-1.03-1.03"/>
            <path id="path1209" class="cls-1" d="M69.49 29.01c0-.57.46-1.03 1.03-1.03s1.03.46 1.03 1.03-.46 1.03-1.03 1.03-1.03-.46-1.03-1.03"/>
            <path id="path1211" class="cls-1" d="M64.74 43.22c0-.57.46-1.03 1.03-1.03s1.03.46 1.03 1.03-.46 1.03-1.03 1.03-1.03-.47-1.03-1.03"/>
            <path id="path1213" class="cls-1" d="M64.74 33.71c0-.57.46-1.03 1.03-1.03s1.03.46 1.03 1.03-.46 1.03-1.03 1.03-1.03-.46-1.03-1.03"/>
            <path id="path1215" class="cls-1" d="M64.74 38.46c0-.57.46-1.03 1.03-1.03s1.03.46 1.03 1.03-.46 1.03-1.03 1.03-1.03-.46-1.03-1.03"/>
            <path id="path1217" class="cls-1" d="M64.74 29.01c0-.57.46-1.03 1.03-1.03s1.03.46 1.03 1.03-.46 1.03-1.03 1.03-1.03-.46-1.03-1.03"/>
            <path id="path1219" class="cls-1" d="M74.24 33.71c0-.57.46-1.03 1.03-1.03s1.03.46 1.03 1.03-.46 1.03-1.03 1.03-1.03-.46-1.03-1.03"/>
            <path id="path1221" class="cls-1" d="M74.24 38.46c0-.57.46-1.03 1.03-1.03s1.03.46 1.03 1.03-.46 1.03-1.03 1.03-1.03-.46-1.03-1.03"/>
            <path id="path1223" class="cls-1" d="M74.24 29.01c0-.57.46-1.03 1.03-1.03s1.03.46 1.03 1.03-.46 1.03-1.03 1.03-1.03-.46-1.03-1.03"/>
        </g>
        <path id="path1225" class="cls-1" d="M19.27 39.32s.75-.81 1.66-.06c0 0-.63.55-1.66.06m3.25-4.54v1.01h-.36c-.09-.25-.17-.53-.22-.63.02-.14.24-.3.58-.37m.75-.02c.35.07.58.24.61.38-.04.11-.14.39-.22.63h-.39v-1.01Zm6.66 6.64c-.09-.21-1.44-1.44-1.44-1.44.4-1.13.21-1.59.21-1.59-.86 1.19-1.41.31-1.41.31.77-1.22.03-1.53.03-1.53s.06 1.09-.83.71c-1-.44-.97-1.09-2.3-1.34l.43-1.28v-.06c0-.61-.65-1.1-1.51-1.17a.436.436 0 0 0-.23-.81c-.24 0-.44.19-.44.44 0 .16.09.3.22.37-.85.08-1.49.56-1.49 1.17v.07l.43 1.29h.05c-1.15.26-1.3.83-1.3.83-.77 0-1.71.61-1.11 1.95-.32-.15-.68-.41-1.07-.82 0 0-.04 1.81 1.93 1.81.71 0 1.56-.4 1.99-.4 0 0 .06.15-.24.21-.31.06-1.04.12-1.29.4 0 0 .73.89 2.32.18 0 0 1.5 0 2.21 1.19.39.66-.46 1.47-.46 1.47s.8 0 1.2-.37c.39-.36-.11.64-1.14 1.1-.34.15 1.41.49 2.02.12 0 0 .03.49-.4.74-.42.24-1.28-.03-1.28-.03s-.59.03-.99.19c0 0-1.01.46-1.1.48-.09.04-1.02.59-.77-.7l.03-.74c0-.3-.21-.49-.21-.49s-1.38-.92-1.56-1.59l-.53.3c-1.93-1.19-2.76-3.58-2.36-6.21 0 0-.09-.25-.3-.06-.21.18-2.94 2.17-.31 6.18 0 0-2.14-1.59-2.37-5.31 0 0-1.23 1.76 1.94 5.87 0 0-2.15-1.14-2.8-3.98 0-.02-2.24 2.86 1.91 6.31 0 0-2.07-1.05-3.09-2.57 0 0 .42 2.13 3.82 3.64 0 0-1.76-.05-3.93-1.49 0 0-.27 2.02 3.17 3.43 0 0-1.15.1-3.09-1.07 0 0-.1 1.02 3.38 1.6 0 0-1.15.45-3.44-.5 0 0 .31 2.49 4.59 2.44 0 0-1.36.6-4.22.21 0 0 1.39 1.15 4.33.16 0 0-.97 1.15-4.14.6 0 0 1.76 3.01 5.74 1.18 0 0-1.18 1.57-4.11 1.73 0 0 2.28.76 4.82-1.44 0 0-2.07 1.97-3.54 2.54 0 0 2.86 1.68 6.4-2.31 0 0-.89 1.49-1.55 2.17.92-.02 2.19-2.45 2.36-2.77-.01.04-.47 1.97-.68 2.43 0 0 1.1.55 2.99-2.96 0 0-.05.55-.24 1.05-.18.5.24.08.24.08s.45-.08.79-2.07l.1 1.05-.21.5.58-.21c.58-.18.05.39.05.39s-1.1.1-2.78 2.38c0 0-.03.5-1.54.89 0 0-.4.03.02.34l.6.55.03 1.07-1.63 1.73c-.76.81-.81-.31-.81-.31l-.08-1.07c-.24-1.65-2.73-2.41-2.96-.6 0 0 .58-.32.79-.05.21.27.03.32.03.32s.42.34.6.55c.19.21.11 1.13.11 1.13s-.03.28.26.59c0 0-1.18-.86-1.94-.99-2.65-.46-2.78 2.57-1.73 2.46 0 0-.27-.2-.05-.68.1-.23.49.13.49.13l1.84.08c.73.03.62.15.34.39-.57.5-1.5.96-.73 2.39 0 0-.19.77.83.85 1.03.08.9-.43.9-.43s-1.07.33-.92-.39c.08-.37.52-.34.52-.34s.63-1.33 1.52-1.75c.89-.42 1.55.31 1.55.31s-.03.79.83.94c0 0 .19.6-.47.71 0 0 .74.42 1.08-.58 0 0 .74-.5.68-1.05-.05-.55-.81-1.26-1.29-1.34l2.26-2.36s0 1.07.94 1.44c0 0 .29-.58.1-1.31l1 .52s-.29-1.44-.05-2.07c.24-.63.76-1.41.76-1.41s.42 1.65-.16 3.3c0 0 .21.24 1.1-.41 0 0-1.15 3.5-3.54 1.52 0 0-.26 3.46 3.23 1.2 0 0 0 .77-2.05 1.33-1.23.34-1.86 2.47-1.86 2.47s1.23-.95 1.83-1.18c.6-.24 2.15-.76 2.44-1.08 0 0-.39 1.11-2.91 1.99-3.12 1.1-3.22 4.61-.68 4.27 0 0-.74-.97-.37-1.65 0 0 .42-.47 1.68-1.28 0 0 1.34-.71 1.6-.81 0 0-1.44 1.52-1.76 2.36-.31.84-.76 2.54.89 2.85 0 0-.37-1.6.7-2.75 0 0 1.5-1.65 1.97-2.05 0 0-.29 2.46-2.18 4.03 0 0 .61.32 1.42.63 0 0-.63 2 1.22 2.99v-31.7l-.52-.66Z"/>
        <g id="g1523">
            <path id="polygon1255" class="cls-1" d="M49.58 62.16v-2.79h-1.4v2.79H45.4v1.4h2.78v2.78h1.4v-2.78h2.79v-1.4h-2.79z"/>
            <path id="path1257" class="cls-1" d="M30.5 70.53h27.88V24.52H30.5v46.01Zm26.49-30.67H54.2v-2.79h-1.39v2.79h-2.79v1.39h2.79v2.79h1.39v-2.79h2.79v2.79h-6.97v13.93l5.4 5.09-6.4 6.55-6.71-6.55 4.93-5.09v-22.3H57v4.18Z"/>
        </g>
    </g>
</svg>
