<?xml version="1.0" encoding="UTF-8"?>
<svg id="a" data-name="Layer 1" xmlns="http://www.w3.org/2000/svg" viewBox="0 0 117.27699 41.8">
  <defs>
    <style>
      .b {
        fill: #000;
        stroke-width: 0px;
      }
    </style>
  </defs>
  <path class="b" d="M63.23701,39.2869c-4.49402,1.1445-7.85202,1.2197-10.28302,1.2197-7.08398,0-15.27899-3.5754-15.27899-13.6333s7.05099-13.8671,16.79901-13.8671c1.755,0,5.44699.1922,8.03699,1.1779l-.577,5.7891c-2.20499-1.2948-4.80301-1.7125-6.474-1.7125-5.75601,0-10.47501,2.3975-10.47501,8.6126,0,5.2211,3.69202,8.3788,8.88,8.3788.952,0,1.862-.1504,2.51401-.4595v-5.2544h-4.15201v-5.0289h11.01001v14.7776ZM65.81902,13.449h7.543l5.90601,20.8758h.07498l5.948-20.8758h7.276l-9.064,26.5898h-8.763l-8.91299-26.5898h-.008ZM95.717,13.449h12.229c4.95401,0,8.646,2.1719,8.646,6.7414,0,3.3498-1.71198,5.2211-4.68597,6.2068v.0752c3.54199.7267,5.37097,2.6314,5.37097,5.8643,0,6.3571-5.60498,7.6937-10.36697,7.6937h-11.20203V13.4406l.009.0084ZM102.8,23.9663h1.98001c2.323,0,4.72-.5764,4.72-2.8152,0-2.4393-2.289-2.6649-4.64502-2.6649h-2.05499v5.4884-.0083ZM102.8,35.0182h2.09702c2.59,0,5.29599-.3759,5.29599-3.0825,0-2.8987-2.78101-3.1661-5.22101-3.1661h-2.172v6.2486Z"/>
  <path class="b" d="M0,27.3916h13.70801v13.7084H0v-13.7084Z"/>
  <path class="b" d="M0,23.7993h17.3v17.2921h10.375V13.4156H0v10.3837Z"/>
</svg>