<svg id="Layer_1" data-name="Layer 1" xmlns="http://www.w3.org/2000/svg" viewBox="0 0 140.39 80">
    <defs>
        <style>
            .cls-1{fill:#000;stroke-width:0}
        </style>
    </defs>
    <path class="cls-1" d="M75.7 68.56c-5.38 1.37-9.4 1.46-12.31 1.46-8.48 0-18.29-4.28-18.29-16.32s8.44-16.6 20.11-16.6c2.1 0 6.52.23 9.62 1.41l-.69 6.93c-2.64-1.55-5.75-2.05-7.75-2.05-6.89 0-12.54 2.87-12.54 10.31 0 6.25 4.42 10.03 10.63 10.03 1.14 0 2.23-.18 3.01-.55v-6.29h-4.97v-6.02H75.7v17.69ZM78.79 37.63h9.03l7.07 24.99h.09l7.12-24.99h8.71L99.96 69.46H89.47L78.8 37.63ZM114.58 37.63h14.64c5.93 0 10.35 2.6 10.35 8.07 0 4.01-2.05 6.25-5.61 7.43v.09c4.24.87 6.43 3.15 6.43 7.02 0 7.61-6.71 9.21-12.41 9.21h-13.41V37.62Zm8.48 12.59h2.37c2.78 0 5.65-.69 5.65-3.37 0-2.92-2.74-3.19-5.56-3.19h-2.46v6.57Zm0 13.23h2.51c3.1 0 6.34-.45 6.34-3.69 0-3.47-3.33-3.79-6.25-3.79h-2.6v7.48Z"/>
    <path style="fill:#5d5d5d;stroke-width:0" d="M0 54.32h16.41v16.41H0z"/>
    <path style="fill:#a2a2a2;stroke-width:0" d="M0 50.02h20.71v20.7h12.42V37.59H0v12.43z"/>
</svg>
