<?xml version="1.0" encoding="UTF-8"?>
<svg id="a" data-name="Layer 1" xmlns="http://www.w3.org/2000/svg" viewBox="0 0 80.8 41.8">
  <defs>
    <style>
      .b {
        fill: #000;
        stroke-width: 0px;
      }
    </style>
  </defs>
  <path class="b" d="M44.2172,9.08674c-.3054-.8951-.8494-1.696-1.6702-2.1954-1.7657-.9516-3.7031-.8009-5.0774.7067-.0668.0848-.1432.1696-.21.2544-.5535.6784-.6203,1.3945-.6394,2.2519,0,1.2249.3722,2.0164,1.2502,2.8833.1241.0753.2482.1507.3627.2261.8494.5842,1.6034.603,2.6151.5842.9734-.0754,1.7465-.4429,2.4146-1.159.8876-1.1118,1.0689-2.1294.9448-3.5427l.0096-.0095ZM31.1515,17.04864v4.9467h6.2608v19.2215h6.3945v-24.1682h-12.6553ZM17.4941,31.32344c-1.2598-2.7702-3.5504-3.882-6.2513-5.0787-1.29799-.5653-2.95864-1.1212-3.59809-2.4686-.07635-.5653-.0668-.848.22906-1.338.60127-.5653,1.16436-.7726,1.99469-.782h.29584c1.3553.0094,2.4433.3674,3.6554.9705.4772.2544.9544.4334,1.4793.603l.6871-1.3851c.0955-.1884.1909-.3769.2768-.5653.1336-.2733.2768-.5559.4104-.8292.0477-.0848.0859-.179.1336-.2638.2672-.5371.4868-1.027.5822-1.6206-2.071-1.3568-4.7052-1.9222-7.158-1.9693h-.52489c-.80169,0-1.5843,0-2.37645.1319-2.09013.4994-3.98937,1.4228-5.17282,3.2601-.07636.1225-.14316.245-.20997.3581-.07635.113-.14316.2261-.20997.3298-.77306,1.4321-.82078,3.75-.34358,5.2953,1.06892,2.4781,2.92045,3.882,5.38279,4.9561,1.57476.6878,3.61719,1.3003,4.49519,2.8738.1145.5371.0859,1.0459-.1431,1.5547-.7349.6125-1.31711.8103-2.26196.8292h-.31495c-1.8229,0-3.42628-.6502-4.94377-1.6113-.29905-.1947-.57582-.3611-.83033-.4993-.13998.0439-.27995.091-.41993.1413-.12407.2073-.24814.424-.36267.6407-.04772.0942-.0859.179-.12407.2733-.09544.1884-.18134.3769-.27678.5653-.14316.3015-.28632.603-.42948.8951-.09544.1979-.19088.3863-.28632.5842-.04772.0942-.09544.1884-.13362.2827-.28632.603-.54401,1.1966-.74443,1.8279,3.58853,1.9033,7.89286,3.1188,11.9681,2.1294,2.1951-.6878,3.9894-1.7808,5.106-3.8348.0573-.1194.1146-.2356.1718-.3487l.1718-.3392c.6681-1.5735.6967-3.9668.0859-5.5685h-.0095ZM80.3888,38.60684c-.3309-2.8581-.4963-5.7319-.4963-8.6214,0-1.1307,0-2.2614-.0191-3.4015v-2.9209c-.0668-1.8844-1.05939-3.8631-2.42419-5.154-4.01801-3.2695-10.1834-1.9692-14.71671-.6407,0,.4806.0668.8103.2099,1.2626.0287.0942.0668.179.0955.2733l.2863.8762c.0668.1979.1336.4052.2004.6125.2004.5936.3913,1.1966.5917,1.7902,1.7561-.5936,3.4359-1.1024,5.31599-1.1495h.33411c.9925-.0189,1.6797.1507,2.5196.7161.6299.5936.9353,1.1401,1.02119,1.9787l.0286.3015c.0382.3486.0763.6972.105,1.0459-.5218-.2576-1.6702-.4115-3.4454-.4617-2.3764-.0283-4.9724.4617-6.7571,2.1482-.0764.0754-.1527.1602-.2291.2356-1.5079,1.4982-2.3669,3.1847-2.5291,5.3048-.105,2.4686.2386,4.8053,1.9374,6.7463,1.4316,1.4134,2.9491,2.12,4.9533,2.1577h.4677c.5726,0,1.1452,0,1.7083-.0659,2.0138-.4429,3.5599-1.4228,4.8007-3.0246.0668-.0942.1336-.179.20039-.2732.0191.1319.0382.2638.0477.3863.0191.179.04771.3486.0668.5182.0954.6973.2386,1.2909.4295,1.9787h5.7073c-.1432-.8857-.2768-1.7526-.42-2.61l.0096-.0094ZM72.4673,35.48804c-.9258.8669-1.7561.9894-3.0159.9705-.6681-.0565-.9353-.1602-1.4411-.5936-.9067-1.1872-.9258-2.2613-.8304-3.703.1432-.9705.6395-1.696,1.3935-2.3367,1.4888-1.0176,3.2449-.5276,4.8674-.1413.10809,3.0088-.2132,4.9435-.964,5.8041h-.0095Z"/>
</svg>