<svg data-name="Layer 1" xmlns="http://www.w3.org/2000/svg" viewBox="0 0 84.67 80">
    <path d="M46.34 29.5c-.32-.95-.89-1.8-1.75-2.33-1.85-1.01-3.88-.85-5.32.75-.07.09-.15.18-.22.27-.58.72-.65 1.48-.67 2.39 0 1.3.39 2.14 1.31 3.06.13.08.26.16.38.24.89.62 1.68.64 2.74.62 1.02-.08 1.83-.47 2.53-1.23.93-1.18 1.12-2.26.99-3.76Zm-13.69 8.45v5.25h6.56v20.4h6.7V37.95H32.65ZM18.34 53.1c-1.32-2.94-3.72-4.12-6.55-5.39-1.36-.6-3.1-1.19-3.77-2.62-.08-.6-.07-.9.24-1.42.63-.6 1.22-.82 2.09-.83h.31c1.42.01 2.56.39 3.83 1.03.5.27 1 .46 1.55.64l.72-1.47c.1-.2.2-.4.29-.6.14-.29.29-.59.43-.88.05-.09.09-.19.14-.28.28-.57.51-1.09.61-1.72-2.17-1.44-4.93-2.04-7.5-2.09h-.55c-.84 0-1.66 0-2.49.14-2.19.53-4.18 1.51-5.42 3.46-.08.13-.15.26-.22.38-.08.12-.15.24-.22.35-.81 1.52-.86 3.98-.36 5.62 1.12 2.63 3.06 4.12 5.64 5.26 1.65.73 3.79 1.38 4.71 3.05.12.57.09 1.11-.15 1.65-.77.65-1.38.86-2.37.88h-.33c-1.91 0-3.59-.69-5.18-1.71q-.47-.31-.87-.53-.22.07-.44.15c-.13.22-.26.45-.38.68-.05.1-.09.19-.13.29-.1.2-.19.4-.29.6-.15.32-.3.64-.45.95-.1.21-.2.41-.3.62-.05.1-.1.2-.14.3-.3.64-.57 1.27-.78 1.94 3.76 2.02 8.27 3.31 12.54 2.26 2.3-.73 4.18-1.89 5.35-4.07q.09-.19.18-.37l.18-.36c.7-1.67.73-4.21.09-5.91Zm65.9 7.73q-.52-4.55-.52-9.15c0-1.2 0-2.4-.02-3.61v-3.1c-.07-2-1.11-4.1-2.54-5.47-4.21-3.47-10.67-2.09-15.42-.68 0 .51.07.86.22 1.34.03.1.07.19.1.29l.3.93c.07.21.14.43.21.65.21.63.41 1.27.62 1.9 1.84-.63 3.6-1.17 5.57-1.22h.35c1.04-.02 1.76.16 2.64.76.66.63.98 1.21 1.07 2.1l.03.32c.04.37.08.74.11 1.11q-.82-.41-3.61-.49c-2.49-.03-5.21.49-7.08 2.28-.08.08-.16.17-.24.25-1.58 1.59-2.48 3.38-2.65 5.63-.11 2.62.25 5.1 2.03 7.16 1.5 1.5 3.09 2.25 5.19 2.29h.49c.6 0 1.2 0 1.79-.07 2.11-.47 3.73-1.51 5.03-3.21.07-.1.14-.19.21-.29.02.14.04.28.05.41.02.19.05.37.07.55.1.74.25 1.37.45 2.1h5.98c-.15-.94-.29-1.86-.44-2.77Zm-8.3-3.31c-.97.92-1.84 1.05-3.16 1.03-.7-.06-.98-.17-1.51-.63-.95-1.26-.97-2.4-.87-3.93.15-1.03.67-1.8 1.46-2.48 1.56-1.08 3.4-.56 5.1-.15q.17 4.79-1.01 6.16Z" style="fill:#000;stroke-width:0"/>
</svg>
